<svg xmlns="http://www.w3.org/2000/svg" data-name="Layer 1" viewBox="0 0 517 516"><g data-name="multitasking or branding or product planninh"><path fill="#020201" d="M501.2 230c-.58-8.07-3.9-14.68-10.62-19.39a18.35 18.35 0 0 0-14.14-3.2 18.69 18.69 0 0 0-12.44 8.26 24.1 24.1 0 0 0-4.1 14.49 23.12 23.12 0 0 0 1 6.36A23.47 23.47 0 0 0 471.75 251a19.25 19.25 0 0 0 9.58 2.74 18.59 18.59 0 0 0 5.18-.85 18 18 0 0 0 10-6.91A23.13 23.13 0 0 0 501.2 230Zm-4.68 13.21a17.33 17.33 0 0 1-6.61 6.55 15.49 15.49 0 0 1-8.37 2.23 18.38 18.38 0 0 1-13.78-6.13 22.26 22.26 0 0 1-5.71-10.58 26.69 26.69 0 0 1-.5-8.66 21.27 21.27 0 0 1 4.4-10.92 16.65 16.65 0 0 1 10.89-6.63c6.69-1 12.16 1.38 16.68 6.2a23.47 23.47 0 0 1 6 12.92 22.61 22.61 0 0 1-3 15.05ZM474 181.64c-.09-1-.2-2-.26-3q-.36-5.84-.71-11.67c-.1-1.76-.22-3.51-.33-5.26h.16v-2.29c0-.76 0-1.53-.1-2.29a3.79 3.79 0 0 0-3.14-3.71 5.38 5.38 0 0 0-1.58-.22 22.61 22.61 0 0 0-7.13 1.52 5 5 0 0 0-.63.28 4.35 4.35 0 0 0-2.47 3.85v1.83c.25 4.35.46 8.7.8 13a107 107 0 0 0 1.39 11.91 25.37 25.37 0 0 0 1.76 5.67 4.12 4.12 0 0 0 4.09 2.74c1.07 0 2.15 0 3.2-.13a5.19 5.19 0 0 0 4.75-4.26c.69-2.61.41-5.3.2-7.97Zm-1.93 8.36a3 3 0 0 1-2.24 2.06c-.81.2-1.64.34-2.47.47a4.7 4.7 0 0 1-1-.09 62.64 62.64 0 0 1 3.11-8.19c.33-.77.64-1.55.9-2.35a.71.71 0 0 0-.25-.58.55.55 0 0 0-.81.09 8.19 8.19 0 0 0-.68 1.18 69 69 0 0 0-3.53 8.71c-.09.27-.08.6-.4.78-.71.08-1-.65-1.52-.88-.37-.24-.3-.69-.48-1a.25.25 0 0 0 0-.33c2.3-4.37 2.94-9.31 4.64-13.89a85 85 0 0 0-2.89 8.26 17.15 17.15 0 0 1-1.3 3.64c-.8 1.37-1.05.3-1.35-.37.06-1.51-.68-2.91-.58-4.42-.27-.86.68-1 .92-1.55 1.63-4.42 3-8.92 4.27-13.45-1.61 3.7-2.35 7.73-4.3 11.3-.36.32-.73.59-1.24.36a43.25 43.25 0 0 1-.79-7.7c-.19-2.43-.16-4.87-.54-7.28 2.29-1.53 1.87-4.34 3.1-6.36a26.5 26.5 0 0 0-2.08 4.49c-.2.46-.09 1.31-1 1.07a14.47 14.47 0 0 1-.25-4.78 2.86 2.86 0 0 1 1.93-2.62 23.81 23.81 0 0 1 6.66-1.59c2-.11 3.35.65 3.5 3.27.05.84 0 1.68 0 2.52a59.83 59.83 0 0 0 .29 8 31.22 31.22 0 0 1 .16 3.21 106 106 0 0 0 .79 11 14.86 14.86 0 0 1-.57 7.02Z"/><path d="M514.6 418.05c-.46 0-.91 0-1.37.05-6 .18-12 .43-17.92.53q-13.79.21-27.56.77c-7.81.31-15.63.43-23.44.62-3 .08-6 .1-9 .2-12.63.4-25.25.94-37.9.79-5.59-.07-11.18 0-16.77 0h-2.26c-.16-.61.19-1 .34-1.39a9.1 9.1 0 0 0 .26-6.07 9.42 9.42 0 0 0-2-3.55 4.66 4.66 0 0 1-.69-5.9c.37-.67.79-1.31 1.18-2a5.33 5.33 0 0 0 .67-3.1 3.57 3.57 0 0 0-2.64-3.37 7.3 7.3 0 0 0-3.62-.23c-1 .16-2 .31-3 .43a5.34 5.34 0 0 1-1.13 0 .75.75 0 0 1-.66-1 5.45 5.45 0 0 1 .48-1.28 27.44 27.44 0 0 1 2.5-3.56 56.52 56.52 0 0 0 4.05-5 9.59 9.59 0 0 0 1.43-3.36 3.44 3.44 0 0 0-2.59-4.21 5 5 0 0 0-2.28-.09 17.53 17.53 0 0 0-5.21 1.67 55.47 55.47 0 0 0-13.08 9.95c-2.95 2.89-5.82 5.86-8.71 8.81-.43.43-.78.93-1.19 1.39-.18.2-.31.55-.7.39a35.64 35.64 0 0 1 1.12-9 59.9 59.9 0 0 1 8.93-18.24 50.56 50.56 0 0 1 10.85-10.81 67 67 0 0 1 14.78-8.65 74.53 74.53 0 0 1 8.2-2.89c3.17-.88 6.29-1.89 9.46-2.76 4.86-1.34 9.79-2.4 14.62-3.86 4.6-1.39 9.29-2.49 13.93-3.78 4.48-1.26 9-2.29 13.43-3.84a62.43 62.43 0 0 0 16.72-8.38c5.63-4.17 10.78-8.82 14.11-15.13a1 1 0 0 1 1.32-.55c1.41.35 2.8.81 4.22 1.09a12.68 12.68 0 0 0 9.6-2.07c2.25-1.45 4.22-3.28 6.57-4.59.9-.51.8-1.42-.1-1.94-3.71-2.17-7.67-2.37-11.77-1.52-2.23.46-4.05 1.73-5.95 2.86-.27.15-.46.62-1 .24a66.54 66.54 0 0 0 2.28-6.68c1.38-4.38 2.37-8.87 3.31-13.35a168.82 168.82 0 0 0 2.82-21.38c.08-1.1.1-1.15 1.19-1.22 2.21-.15 4.44-.19 6.65-.43 3.57-.39 7.13-.91 10.71-1.35a33.45 33.45 0 0 0 5.58-1.21c3.74-1.12 5.5-3.94 6.55-7.36a28.33 28.33 0 0 0 .58-3.85 57.21 57.21 0 0 0 .4-8.48c0-9.2.31-18.39 0-27.58a31.51 31.51 0 0 0-.9-7 10.56 10.56 0 0 0-2.31-4.42 8.91 8.91 0 0 0-4.31-2.9.89.89 0 0 1-.75-1c0-.76.05-1.53.11-2.29.32-3.74.66-7.48 1-11.21.6-6.87 1-13.76 1.13-20.65.16-6 .08-12.1.11-18.15a88.46 88.46 0 0 0-.55-12.39c-.27-2-.33-4-.56-5.94-.35-3-.81-6.07-1.13-9.11a36.43 36.43 0 0 0-2.29-9.32 42.73 42.73 0 0 0-4.48-8.25 12.29 12.29 0 0 0-6.16-5.2 8.21 8.21 0 0 1-1-.56A31.18 31.18 0 0 0 476.29 91c-3.44-.17-6.89-.06-10.33.11-6 .31-11.88 1.23-17.8 1.94-5.16.63-10.3 1.44-15.45 2.2a70.78 70.78 0 0 1-8.21.88c-1.91.06-3.82.3-5.72.54-5.54.69-11.08 1.43-16.62 2.13a34.49 34.49 0 0 1-3.65.39 49 49 0 0 0-6.41.54c-2.05.31-4.11.39-6.17.59-4.41.45-8.83 1-13.23 1.54-3.18.43-6.36.91-9.49 1.6a56.8 56.8 0 0 0-13 4.14A23.63 23.63 0 0 0 338 121.52a20.37 20.37 0 0 0-1.21 4.42c-.1.83-.28.94-1 .83-1.44-.2-2.87-.48-4.32-.61a67.16 67.16 0 0 0-9.62-.44 74.46 74.46 0 0 0-11.34 1.73 25.4 25.4 0 0 0-9 3.82 12.28 12.28 0 0 0-4.84 6 8.34 8.34 0 0 0 .88 8.29c.18.25.34.51.53.75a1.12 1.12 0 0 1 .1 1.28 21.88 21.88 0 0 0-1.51 11.25 7.31 7.31 0 0 1-1.42 5.63 8.59 8.59 0 0 0-1.66 7.36 12.43 12.43 0 0 0 .6 2.44 16.07 16.07 0 0 1 1.17 7.87v.46a11 11 0 0 0 3.65 8.37c2 1.91 4.17 3.62 7 4.1a9.37 9.37 0 0 1 1.71.65c.36.14.71.29.77.77-.29.22-.58.46-.9.68a2.93 2.93 0 0 0-1.27 3 24.24 24.24 0 0 0 .95 4.94 74.52 74.52 0 0 1 1.6 9.27 23.1 23.1 0 0 1-1.94 13.62 50.57 50.57 0 0 0-2.91 7.72c-.77 2.65-1.74 5.22-2.74 7.79a186.47 186.47 0 0 1-9.8 20.22c-.1.18-.34.27-.59.46-.37-1.87-.74-3.65-1.08-5.43a155.63 155.63 0 0 0-3.67-15.64 20.54 20.54 0 0 0-4.32-8.27 39.85 39.85 0 0 1-4.45-5.82 14.8 14.8 0 0 0-5.22-5.09c-1.72-1-2.57-.88-4.13.4a.52.52 0 0 1-.71.14l-.6-.48a19.35 19.35 0 0 0-5.72-3.34 7 7 0 0 0-2.23-.5 2.46 2.46 0 0 0-2.73 2.46 5.28 5.28 0 0 0 1.12 3.65 16.6 16.6 0 0 0 4.26 4.14c.9.58 1.84 1.11 2.69 1.75a12.92 12.92 0 0 1 3.81 3.59c.37.37.72.77 1.11 1.11a.41.41 0 0 0 .61 0c.14-.17.35-.4.31-.56a3 3 0 0 0-.42-1 14.33 14.33 0 0 0-4.43-4.27 27.1 27.1 0 0 1-6.31-5.28 3.85 3.85 0 0 1-1.22-2.64 1 1 0 0 1 1.15-1.11 5.47 5.47 0 0 1 1.78.39 24.89 24.89 0 0 1 5.77 3.27 5.27 5.27 0 0 1 1.91 2.51 19.14 19.14 0 0 0 1.59 3 16.08 16.08 0 0 1 2.52 9.15 10.63 10.63 0 0 0 2 6.92 5.49 5.49 0 0 0 1.61 1.61 1.81 1.81 0 0 0 .63.25.74.74 0 0 0 .73-.44.52.52 0 0 0-.07-.63c-.2-.23-.44-.42-.65-.64a7.9 7.9 0 0 1-2.4-5.07c-.05-.91-.15-1.83-.13-2.75a16.7 16.7 0 0 0-2.3-8.53c-.56-1-1.14-2-1.7-3a4.66 4.66 0 0 1-.59-2.19.83.83 0 0 1 1-.75 6.32 6.32 0 0 1 1.24.57 12.76 12.76 0 0 1 4.47 4.53 36.49 36.49 0 0 0 4.32 5.64 16.65 16.65 0 0 1 3.46 5.9 89.79 89.79 0 0 1 2.92 10.84c.95 4.49 1.88 9 2.63 13.51a4.34 4.34 0 0 1-.43 2.85c-1 1.9-1.88 3.85-2.73 5.81a1.48 1.48 0 0 1-1.57 1c-2.22 0-4.44 0-6.66.05a.76.76 0 0 1-.86-.82c0-.84 0-1.68-.07-2.52a12.38 12.38 0 0 0-3.44-8.05 42 42 0 0 0-7.35-6.22 5.68 5.68 0 0 1-1.93-1.6c.92-.08 1.73.24 2.58.09 2.1-.35 2.81-1.76 1.82-3.66a10.83 10.83 0 0 0-2.74-3c.2-.56.65-.33.94-.45s.58-.19.86-.32a2.72 2.72 0 0 0 1.54-3.6c-.37-1.12-.72-1.61-2.26-3.16.16-.15.31-.31.49-.45 1.57-1.2 1.78-2 .86-3.67-.37-.66-.81-1.28-1.22-1.92-.85-.77-1.68-1.55-2.54-2.31a14 14 0 0 0-3.43-2.28c-1.43-.63-2.22-.07-2.15 1.52a8.16 8.16 0 0 0 .36 2 5.64 5.64 0 0 1-.65 4.84c-.2.32-.37.67-.54 1a4.84 4.84 0 0 0-.36 3.78c.16.51.27 1 .43 1.55a4.84 4.84 0 0 1 0 2.72c-.14.52-.26 1-.43 1.55a3.69 3.69 0 0 0 .78 3.65 13.08 13.08 0 0 0 2.9 2.6c1.32.91 2.65 1.8 4 2.72a45.23 45.23 0 0 1 6.18 5.13 12.37 12.37 0 0 1 3.8 9.52c0 .67.13 1.4-.93 1.49-.38 0-.44.56-.56.93a10.35 10.35 0 0 0-.34 3.18c0 2.07.05 4.14 0 6.2-.13 3.51-.34 7-.52 10.44-.24.08-.32.13-.39.11a2.25 2.25 0 0 1-.64-.18 8.35 8.35 0 0 0-6.44-.68 10.88 10.88 0 0 1-4.76.44 3.45 3.45 0 0 1-.15-.66c-.07-3.75-.12-7.5-.18-11.25 0-.61 0-1.23-.08-1.83-.13-1.12-.51-1.48-1.64-1.48-1.68 0-3.37.1-5.05.06-3.75-.1-7.5-.26-11.25-.42-2.53-.1-5.05-.26-7.58-.36-1.45-.06-2.88-.11-4-1.3a1.12 1.12 0 0 0-.41-.2c-1-.47-1.83-.43-2.4.54a1.73 1.73 0 0 1-1.89.86q-4-.18-8-.31l-25.5-.75c-3.21-.09-6.43-.18-9.64-.31-1.66-.06-2.19-.46-2.56-2.06a22 22 0 0 1-.72-3.9 77.05 77.05 0 0 1-.18-11.47c.19-2.06.3-4.13.51-6.18.5-5 1-9.91 1.57-14.85.95-7.67 2-15.33 3-23a123.46 123.46 0 0 1 3.41-17.33c.37-1.32.69-2.66 1-4 .16-.82-.28-1.29-1.14-1.35a17.3 17.3 0 0 0-4.74.74A5.45 5.45 0 0 0 180 198a21 21 0 0 0-1.39 2.37 31.83 31.83 0 0 0-2.24 6.5c-2.09 8.8-3.37 17.74-4.66 26.68-.65 4.54-1.17 9.11-1.7 13.67q-.58 5.13-1 10.29-.64 7.67-1.2 15.34a113.27 113.27 0 0 0-.16 19.05 13.76 13.76 0 0 0 .49 2.71 6.76 6.76 0 0 0 2.53 3.73 9.76 9.76 0 0 0 5.09 1.88c2.68.15 5.34.45 8 .49 1.22 0 2.43.24 3.65.37.07 0 .17 0 .2.07s0 .15 0 .35c-.25.16-.55.37-.86.55-6.54 3.83-13 7.71-19.62 11.48a177.36 177.36 0 0 0-21 14c-3.19 2.5-6.36 5-9.72 7.31-1.78 1.2-3.52 2.47-5.25 3.73-10.83 7.89-21.54 15.93-33 22.86-.5.3-.91.82-1.58.78a2 2 0 0 1-.31-.35c-1.76-3.57-3.84-6.95-5.93-10.32-1.42-2.28-2.78-4.57-4.07-6.91a25.36 25.36 0 0 1-3.39-13.17c.07-3.06.07-6.13.05-9.19a31.2 31.2 0 0 0-1.14-9.31c-.31-1-.61-2-.93-3.05a3 3 0 0 1 .63-.34 6.4 6.4 0 0 0 4.46-3.91 32.84 32.84 0 0 0 1.54-4.78c.61-2.22 1.16-4.45 2.75-6.22a1.5 1.5 0 0 0 .29-.61 1 1 0 0 0-.82-1.33 10.62 10.62 0 0 0-10.73 4.72 16.26 16.26 0 0 0-2.09 4.81c-.1.4 0 .92-.59 1.17a24.4 24.4 0 0 1-3.08-3 70.6 70.6 0 0 1-5.6-6.38 20.82 20.82 0 0 1-2.73-4.21 32.12 32.12 0 0 1-2-5.59 95.87 95.87 0 0 1-2.5-10c-.54-3.52-1-2.88 2.7-3.53h.23c4.34-.44 8.67-1 13-1.77a37.16 37.16 0 0 0 12.87-4.59 20.91 20.91 0 0 0 6.33-5.58 16.51 16.51 0 0 0 3.11-10.36c-.07-1.53-.14-3.06-.28-4.58-.36-3.81-.63-7.64-1.17-11.42-.75-5.3-1.75-10.56-2.57-15.85a42 42 0 0 0-2.94-10.81 13.19 13.19 0 0 0-8.67-7.59 18 18 0 0 0-8-.22q-3.51.56-7 1.26c-4.05.82-8.09 1.66-12.12 2.55-2.75.61-5.5 1.3-8.24 2-2.07.52-4.13 1.1-6.2 1.66-4.84 1.16-9.57 2.69-14.44 3.59-2.93.51-5.83 1.2-8.73 1.89a27.86 27.86 0 0 0-8.3 3.2 10.31 10.31 0 0 0-4.49 5.6 14.65 14.65 0 0 0-.75 7c.38 2.5.73 5 1.18 7.49a51.71 51.71 0 0 0 1.67 7.14c.6 1.81 1.24 3.61 1.83 5.43 1.73 5.29 3.44 10.6 5.19 15.88A27.87 27.87 0 0 0 16 266a7.52 7.52 0 0 0 3.92 3.69 37 37 0 0 0 4.57 1.51 42.21 42.21 0 0 0 7.26 1.05 92.22 92.22 0 0 0 15.14.08c3.59-.25 7.17-.62 10.76-.93.61-.05.88.12.93.72.3 3.3 1.35 6.43 2.08 9.63.53 2.31 1 4.66 1.69 6.91A44.17 44.17 0 0 0 67 299.05c1.25 1.93 2.55 3.82 3.79 5.75a28.84 28.84 0 0 1 3.06 5.37c.85 2.28 1.59 4.62 2.28 7a50.7 50.7 0 0 1 1.82 16.35 7.89 7.89 0 0 1-.55 2.48 3.24 3.24 0 0 1-1.88 1.89 11.81 11.81 0 0 1-7.84.68 44.6 44.6 0 0 0-5.85-1.08 55 55 0 0 1-9.24-1.67 34.55 34.55 0 0 1-7.86-3.09 19.58 19.58 0 0 1-6.18-6c-.08-.13-.12-.28-.19-.42a.39.39 0 0 1 .25-.55 11.58 11.58 0 0 1 1.31-.38 47.31 47.31 0 0 0 10.78-4.42 9.15 9.15 0 0 0 1.51-1 5.82 5.82 0 0 0 2.18-4.61 17.27 17.27 0 0 0-.47-3.86c-.27-1.2-.48-2.4-.77-3.59-.6-2.45-1.17-4.92-1.87-7.34a15.67 15.67 0 0 0-3.75-6.56 6.14 6.14 0 0 0-4.7-2 14.19 14.19 0 0 0-2.06.17 58.83 58.83 0 0 0-7.64 1.47c-2.64.76-5.37 1.18-8.05 1.82-3.11.76-6.2 1.67-9.32 2.39a32.8 32.8 0 0 0-6.9 2.41 8.69 8.69 0 0 0-5 6.43 14.76 14.76 0 0 0 .29 6.14c.45 2 1 4 1.32 6a18 18 0 0 0 4.67 9.3 7.18 7.18 0 0 0 5.1 2.25 10.16 10.16 0 0 0 2.06-.09c2.11-.32 4.25-.58 6.33-1.07 4-.94 8.13-1.45 12.07-2.74a.91.91 0 0 1 1.16.44A37 37 0 0 0 42 333c.22.21.39.47.6.69a36.49 36.49 0 0 0 7.4 6.11 41.42 41.42 0 0 0 11 4.44c3.9 1.1 7.84 2.05 11.77 3a17.29 17.29 0 0 1 4 1.55 23.55 23.55 0 0 1 8.23 7.58 60.51 60.51 0 0 1 4.41 8.54c.18.38.55.77.23 1.38-.31.16-.71.37-1.12.56a74.61 74.61 0 0 1-11.06 3.75 19.36 19.36 0 0 1-4.06.75 34 34 0 0 1-12.66-1.75 40.26 40.26 0 0 1-10.18-5.19 70.82 70.82 0 0 1-11.66-10 26.11 26.11 0 0 0-6.64-4.86c-2.76-1.55-5.3-1.12-7.71.7a17.92 17.92 0 0 0-3.55 3.58 8.75 8.75 0 0 0-1.74 6.92 21.36 21.36 0 0 0 2.77 7.49q4.77 8.11 9.66 16.16a90.33 90.33 0 0 1 4.88 8.83c3.29 7 6.88 13.84 10.55 20.64a31.68 31.68 0 0 0 2.94 4.65c.84 1.09 1.67 2.19 2.51 3.29.17.23.47.48.19.78a1 1 0 0 1-.62.16c-5.28.07-10.56.2-15.85.18-10.8-.06-21.6-.19-32.4-.29H1.83a.59.59 0 0 0-.57.59.56.56 0 0 0 .49.65 14.3 14.3 0 0 0 1.6.09l25.51.22c4.06 0 8.12.14 12.18.15s8.27-.05 12.41-.15a3 3 0 0 1 2.25.9c.9.83 1.81 1.65 2.74 2.45a6.8 6.8 0 0 0 3.71 1.68c4.43.51 8.38-.48 11.5-3.86a3.19 3.19 0 0 1 3-1.27 4 4 0 0 0 .69 0l136.28-.64 45.05-.19a8 8 0 0 1 3.15.43c7 2.85 14.3 3 21.69 2.15a63.06 63.06 0 0 0 9.59-2.27 15.59 15.59 0 0 1 4.07-.55q21.15 0 42.29-.12l37-.14h22.52c2.9 0 5.81-.23 8.72-.3q11.71-.3 23.43-.55l1.38-.05c7.2-.26 14.39-.56 21.59-.77 10.33-.3 20.67-.54 31-.79l27.11-.67c.84 0 1.68-.05 2.53-.06.51 0 .91-.14.93-.74s-.25-.83-1.07-.78ZM261.18 234c.44-.23.85.25 1.19.52a16.55 16.55 0 0 1 4.57 4.75c.42.72.16 1.14-.68 1.2a8.42 8.42 0 0 1-3.58-.63c-1.37-.51-1.5-.39-1.24-2a8.66 8.66 0 0 0-.25-2.65c-.08-.41-.53-.92-.01-1.19Zm-1.35 7.9c.35-.69.67-.88 1.46-.62a23.88 23.88 0 0 1 4.37 1.9 4.29 4.29 0 0 1 2 2.37c.42 1.26-.09 2.05-1.43 2.26-.37.06-.75.08-1.19.13a19.35 19.35 0 0 1-2.21-.24c-.93-.19-2.24.05-2.62-1-.55-1.49-1.21-3.11-.38-4.81ZM260 253a1.1 1.1 0 0 1-.51-1.19 21.21 21.21 0 0 1 .56-2.22.49.49 0 0 1 .72-.32 19.87 19.87 0 0 1 5 2.82 5.87 5.87 0 0 1 1.45 1.76.68.68 0 0 1-.45 1.06l-.59.11A16.38 16.38 0 0 1 260 253ZM39.55 271a98.83 98.83 0 0 1-11.55-.8 38.61 38.61 0 0 1-5.6-1.23 13.16 13.16 0 0 1-3.47-1.75 6.41 6.41 0 0 1-2.37-3.56Q15 259 13.42 254.31 11.2 247.7 9 241.08a31.28 31.28 0 0 1-1.13-4.68c-.42-2.65-1-5.28-1.4-7.92a22.82 22.82 0 0 1-.19-5.72 12.64 12.64 0 0 1 1.86-5.14 5.75 5.75 0 0 1 1.67-1.55 20.09 20.09 0 0 1 7.48-3.33c2.51-.66 5.05-1.23 7.6-1.72 5.49-1 10.86-2.5 16.24-4 4.85-1.34 9.74-2.6 14.67-3.69 2.76-.61 5.51-1.26 8.28-1.82 3.22-.65 6.42-1.38 9.66-1.93a25.92 25.92 0 0 1 7.09-.35 10.91 10.91 0 0 1 6.5 3.11 15.27 15.27 0 0 1 4.26 7.72c1.15 4.53 1.87 9.14 2.61 13.75.91 5.66 2 11.29 2.19 17.05.07 2.21.45 4.42.58 6.63a14.81 14.81 0 0 1-3.34 10.9 21.12 21.12 0 0 1-4.27 3.78 31.3 31.3 0 0 1-7.83 3.74 45.76 45.76 0 0 1-6.48 1.48c-5.13.87-10.28 1.56-15.46 2.1-6.47.68-12.95 1.32-20.04 1.51ZM34 325.33c-4.29 1.15-8.67 1.9-13 2.79a33.09 33.09 0 0 1-5.25.59 6.27 6.27 0 0 1-5.36-2.54 19.37 19.37 0 0 1-3.67-8.56c-.3-1.42-.61-2.83-1-4.24a16.21 16.21 0 0 1-.45-4.1v-1.37a6.69 6.69 0 0 1 3.79-5.9 21.62 21.62 0 0 1 4.94-1.94c3.11-.79 6.16-1.79 9.29-2.49 5.23-1.17 10.39-2.61 15.68-3.5 1.21-.21 2.42-.26 3.65-.35a5.36 5.36 0 0 1 4.86 2.51 20.72 20.72 0 0 1 2.92 6.44 77.41 77.41 0 0 1 2.26 10.53c.5 2.92.46 4.91-3.69 6.95A79.88 79.88 0 0 1 34 325.33Zm449.48-21.28a10.56 10.56 0 0 1 3.8.81c.28.15.39.57.15.75-2.3 1.77-4.46 3.73-7.18 4.87-.5.21-1 .4-1.49.58a7.74 7.74 0 0 1-5 .27c-1.4-.39-2.79-.8-4.44-1.27a9.58 9.58 0 0 1 .72-.91c3.73-3.73 8.11-5.71 13.44-5.1Zm-10.8-12.46c-.71.36-1.13-.49-1.59-.95a15.28 15.28 0 0 1-3.06-5 22.37 22.37 0 0 1-1.52-5.23c-.13-.84-.74-1.66-.25-2.57 1 .11 1.57.9 2.32 1.39a5.9 5.9 0 0 1 1.91 2.22 18.75 18.75 0 0 1 2.37 8.63c-.03.4.33 1.26-.18 1.51Zm4.53-22.36c-.1.91-.28 1.82-.35 2.73-.42 5-1.44 10-2.34 15-.64-.4-.65-1-.8-1.58a15 15 0 0 0-3.37-6.67 5.56 5.56 0 0 0-1-1c-1.49-.93-3-1.82-4.52-2.71a.87.87 0 0 0-1.07 0 .92.92 0 0 0-.19 1.25c1.51 2.32 1.51 5.1 2.27 7.65 1.09 3.69 2.73 6.94 6 9.18.95.65.82.87.55 1.7-1.41 4.29-2.63 8.63-4.68 12.68a34 34 0 0 1-3.09 5.6 18.17 18.17 0 0 1-4.18 3.89 27.34 27.34 0 0 1-3.34 2c-1.84.92-3.72 1.74-5.56 2.58-.55-.34-.35-.84-.34-1.25.08-6.51-2.15-12.27-5.77-17.56a33.4 33.4 0 0 0-8.74-8.68c-3.64-2.52-7.21-5.14-10.81-7.72-.24-.18-.45-.4-.76-.66a17.77 17.77 0 0 0 2.21-2 15.31 15.31 0 0 0 3.48-7.86 36.45 36.45 0 0 0 .07-8.48 8.45 8.45 0 0 0-.26-1.33.68.68 0 0 0-.95-.33 1.87 1.87 0 0 0-.35.28 28.22 28.22 0 0 0-6.6 9.56 12.18 12.18 0 0 0-.79 5.86c.05.42.25.87-.12 1.35a5.91 5.91 0 0 1-2-1.44 44.34 44.34 0 0 1-10-12.13 62.56 62.56 0 0 1-5.36-12.89c-1.11-4-2-8.16-2.81-12.28a76.22 76.22 0 0 1-1.38-10.23c0-.91.11-1.1 1-1.11h8.5c4.76 0 9.48-.4 14.21-.84 2.82-.26 5.65-.44 8.47-.68 1.75-.14 3.5-.35 5.25-.48.59-.05 1.24-.67 1.71-.13a3.73 3.73 0 0 1 .57 1.7c.51 2.4 1 4.79 1.46 7.2a64.31 64.31 0 0 0 3 11 15.9 15.9 0 0 0 9.46 9.7 40.7 40.7 0 0 0 9.58 2.19 94.77 94.77 0 0 0 12.82.87h.69c.57 0 .77.25.72.91-.15 1.81-.32 3.48-.49 5.16Zm-52.37 14.65c-.51.37-1 .41-1.24-.59a12.94 12.94 0 0 1 1.28-8.66 22.09 22.09 0 0 1 4.63-6.37c.49 4.55.12 8.57-1.85 12.35a9.44 9.44 0 0 1-2.82 3.27Zm-15.72-1.28a10.41 10.41 0 0 0-8 .54 14.66 14.66 0 0 0-5.3 5c-.65.94-.16 1.78 1 1.89 1.45.14 2.9.24 4.34.4a20.6 20.6 0 0 0 8.35-1.13 15.37 15.37 0 0 0 4.68-2.89c.66.43 1.33.81 1.93 1.28a63.07 63.07 0 0 0 7.41 4.54c3.89 2.28 7.79 4.54 11.47 7.13a21.81 21.81 0 0 1 9 13.09 18.06 18.06 0 0 1 .43 6.6 7.83 7.83 0 0 1-3.36 5.51 8.63 8.63 0 0 1-1.74 1.1 65.43 65.43 0 0 1-11.26 3.8c-2.85.58-5.74.91-8.59 1.45-6.39 1.2-12.81 2.21-19.14 3.69-.22.05-.45.06-.68.09-.7.09-1.56.71-1.87-.55a22.79 22.79 0 0 0 3.67-13.5 8.81 8.81 0 0 0-.12-1.36 1 1 0 0 0-1.11-.56 14 14 0 0 0-4.7 2.75 22.87 22.87 0 0 0-5.49 7.82c-1.06 2.48-1.94 5-1.56 7.66a3.62 3.62 0 0 1-2 .76c-3.9.83-7.56 2.39-11.34 3.59-.94.31-1.86.69-2.81 1A66.19 66.19 0 0 0 363 346a9.89 9.89 0 0 1-1.26.53.34.34 0 0 1-.45-.35c.08-.69.23-1.36.36-2 .81-4.13 1.31-8.31 1.83-12.48a160.67 160.67 0 0 0 .68-24.32c-.21-7.81-.63-15.61-.9-23.41-.09-2.68 0-5.36 0-8 .09-3.38-.29-6.73-.4-10.09v-2.76a.54.54 0 0 1 .59-.55h1.84a26.65 26.65 0 0 0 12.84-2.89 34.24 34.24 0 0 0 9.7-6.86c.46-.5 1-1 1.51-1.48a4.83 4.83 0 0 1 1.28 2.16 25.66 25.66 0 0 0 4.29 7 13.72 13.72 0 0 0 5.58 3.88 2.08 2.08 0 0 1 1.45 1.58 52 52 0 0 0 2.25 6.72 36.48 36.48 0 0 0 3.81 6.76c.83 1.18 1.74 2.31 2.63 3.48-.63.23-1.05-.18-1.51-.32Zm3.4 2.81a5.27 5.27 0 0 1-2.47 1.85 16.19 16.19 0 0 1-8 1.49 12.62 12.62 0 0 1-1.38-.09c-.92-.19-2 .3-2.79-.46.34-.89 1.15-1.38 1.77-2a8.21 8.21 0 0 1 6.43-2.46 19.43 19.43 0 0 1 6.44 1.67Zm-15.68 47.18a3.18 3.18 0 0 0-.27.37c-1.13 2.71-3.62 3.23-6.08 3.79-.37.08-.57-.18-.66-.47a3.28 3.28 0 0 1 .05-1.81 23.37 23.37 0 0 1 4.84-10 16.81 16.81 0 0 1 3.92-3.42 1.5 1.5 0 0 1 1.35-.22 19.74 19.74 0 0 1-3.15 11.76ZM361.6 253.2a3.54 3.54 0 0 1-2.55-.38h-.16a1.47 1.47 0 0 1-1.05-.15.63.63 0 0 1-.66-.29l-1.5-.46c-.19 0-1-.15-1.06-.42 0 0-8-3.92-10.61-7.7a.67.67 0 0 1-.43-.6.46.46 0 0 1-.35-.48.2.2 0 0 1-.14-.28.66.66 0 0 1-.39-.62 1 1 0 0 1-.47-.88 1 1 0 0 1-.45-.91 1.08 1.08 0 0 1-.41-.93.19.19 0 0 1-.08-.29 1.21 1.21 0 0 1-.4-1.09c-.12-.07-.14-.15-.06-.27a9.9 9.9 0 0 1-.91-4.55 13.05 13.05 0 0 1-.37-4.82 8.66 8.66 0 0 1-.08-3 2.78 2.78 0 0 1-.12-.38 7.34 7.34 0 0 1-.27-2.64c0-.37-.07-.75-.1-1.12a2.37 2.37 0 0 1-.33-1.64v-.47c0-.27-.07-.54-.1-.82a2.57 2.57 0 0 1-.37-1.93 11.17 11.17 0 0 1-.54-3.19 12 12 0 0 1-.86-4.17 22 22 0 0 1-1-5 14.84 14.84 0 0 1-.91-4.51 2 2 0 0 1-.35-1.49l-.12-.78a2 2 0 0 1-.37-1.52 4.71 4.71 0 0 1-.47-2.3.37.37 0 0 1-.1-.39 2 2 0 0 1-.44-1.45c0-.33-.1-.82.45-.79s.52.43.46.82.06.55.1.82a12.67 12.67 0 0 1 1 4 1.31 1.31 0 0 1 .31 1.14c0 .26.08.53.13.79a2 2 0 0 1 .35 1.51c0 .25.07.51.11.76a2 2 0 0 1 .34 1.54v.47c0 .16.07.49.11.74a14.61 14.61 0 0 1 .86 4.24 11.92 11.92 0 0 1 .88 4.21.29.29 0 0 1 0 .4 18.54 18.54 0 0 1 1 5 1.77 1.77 0 0 1 .33 1.51l.12 1.14a3.26 3.26 0 0 1 .35 2.06 2.42 2.42 0 0 1 .07 1.57 8.38 8.38 0 0 1 .39 3.94 10.9 10.9 0 0 1 .07 3.42 1.66 1.66 0 0 1 .14.43 7.74 7.74 0 0 1 .25 2.58c.15.77.3 1.54.44 2.31.05.24.09.47.14.71a.64.64 0 0 1 .25.64l.2.8a.56.56 0 0 1 .27.58l.14.47a.65.65 0 0 1 .21.41 3.76 3.76 0 0 1 .71 1.48.38.38 0 0 1 .23.36c.09.16.17.32.25.48a.46.46 0 0 1 .33.47 25.26 25.26 0 0 0 8.41 7.38 1 1 0 0 1 .86.45h.05a1 1 0 0 1 .89.43 1 1 0 0 1 .93.4l1 .33.31.15 1 .26a.24.24 0 0 1 .38.16l1.43.23a.74.74 0 0 1 .86.21h4.07a.72.72 0 0 1 .82-.23l1.39-.27a.32.32 0 0 1 .46-.2l1-.24a.3.3 0 0 1 .43-.21l.9-.28c1.07-.57 2.13-1.14 3.21-1.68a.71.71 0 0 1 .63.09c.29.28 0 .58-.18.73a7.48 7.48 0 0 1-3.05 1.45 1 1 0 0 1-1 .41 3.36 3.36 0 0 1-1.37.46 25.55 25.55 0 0 1-4.59.91Zm-7.37-72.76a2.14 2.14 0 0 1 .33 1.54 1.58 1.58 0 0 1 .11 1.13 3.24 3.24 0 0 1 .38 2.09 1.45 1.45 0 0 1 .08 1.12 3.17 3.17 0 0 1 .36 2.09 2.55 2.55 0 0 1 .09 1.59 4.56 4.56 0 0 1 .38 2.55 2.87 2.87 0 0 1 .09 1.59 4.84 4.84 0 0 1 .36 2.55 2.71 2.71 0 0 1 .11 1.57 3.22 3.22 0 0 1 .37 2.11l.09.8a3.28 3.28 0 0 1 .37 2c.24 1 .47 1.93.71 2.89a36 36 0 0 0 5 11.29c1.79 2.76 3.58 5.52 5.14 8.42a17.88 17.88 0 0 1 1.58 3.55.44.44 0 0 1-.26.55.51.51 0 0 1-.59-.21.78.78 0 0 1-.11-.2c-1.83-4.32-4.48-8.18-7-12.11a36.91 36.91 0 0 1-4.71-10.9 12.34 12.34 0 0 1-.18-1.36 1.85 1.85 0 0 1-.36-1.47l-.13-1.1a2.14 2.14 0 0 1-.33-1.65 1.88 1.88 0 0 1-.11-1.17 4.7 4.7 0 0 1-.37-2.51 1.66 1.66 0 0 1-.08-1.14 6.25 6.25 0 0 1-.38-3 2.41 2.41 0 0 1-.07-1.57 4.43 4.43 0 0 1-.39-2.56 1.52 1.52 0 0 1-.07-1.13 3.3 3.3 0 0 1-.36-2.09 1.82 1.82 0 0 1-.12-1.17 3.51 3.51 0 0 1-.37-2l-.09-.76a2.23 2.23 0 0 1-.34-1.53 63.13 63.13 0 0 1-1.44-6.93 8.64 8.64 0 0 1-.31-.85c-.38-1.52-.29-2.41.13-2.16.77.46.64 1.27.69 2a25.25 25.25 0 0 1 1.37 5.94 2.14 2.14 0 0 1 .35 1.53Zm-2.06 34.14a26.9 26.9 0 0 1 1.05 6.49 1.79 1.79 0 0 1 .09 1.14 3.49 3.49 0 0 1 .34 2.06c.35 1.49.65 3 1.05 4.46a19.08 19.08 0 0 0 4.61 8.1 8.84 8.84 0 0 0 2.31 1.86c.28.15.48.42.27.74s-.57.2-.84.08a4.57 4.57 0 0 1-1.16-.71 19.33 19.33 0 0 1-6.68-12.42 2.08 2.08 0 0 1-.36-1.64 1.43 1.43 0 0 1-.08-1.11 5.9 5.9 0 0 1-.5-2.68 44.09 44.09 0 0 0-1.91-8.94 1.28 1.28 0 0 1-.45-1 .45.45 0 0 1 .3-.51.61.61 0 0 1 .41.12.86.86 0 0 1 .35.77 9.35 9.35 0 0 1 1.2 3.19Zm26.91 32.85a.46.46 0 0 1 .1-.41 5.41 5.41 0 0 1 .76-.48 10.86 10.86 0 0 0 4.85-5.58c.18-.42.32-.85.52-1.26a.49.49 0 0 1 .38-.17c.29 0 .34.23.41.51a4.08 4.08 0 0 1-.12.61 11.32 11.32 0 0 1-5.92 6.91 1.36 1.36 0 0 1-.66.11.4.4 0 0 1-.32-.24Zm14.92 9.16a33.08 33.08 0 0 1-2.78-5.51 2.09 2.09 0 0 1 .34-2.52 10.79 10.79 0 0 0 1.11-1.46A18.21 18.21 0 0 0 396 237c.05-1.07 0-2.14.06-3.21 0-.38-.08-.87.28-1a2 2 0 0 1 1.56 0c.31.11.36.46.34.78a59.57 59.57 0 0 0 .18 7.79c.34 5.88 1 11.73 1.84 17.56.17 1.27.5 2.52.81 4-3.4-1.27-5.4-3.64-7.07-6.33Zm113.8-52.16a14.57 14.57 0 0 1 1.37 4.83 153.1 153.1 0 0 1 .5 15.59v3.68h-.19c0 4.82.07 9.64 0 14.46-.05 2.45-.32 4.89-.59 7.32a12.81 12.81 0 0 1-1.45 4.56 7.86 7.86 0 0 1-5.5 4.13 50.42 50.42 0 0 1-7 1.07 22.6 22.6 0 0 0-3 .38 51.63 51.63 0 0 1-9.11 1 103.84 103.84 0 0 1-16.73-.3 53.3 53.3 0 0 1-11-2.17 14.41 14.41 0 0 1-8.77-7.89 35.15 35.15 0 0 1-2-6.06c-1.43-5.63-2.49-11.35-3.51-17.06a18.3 18.3 0 0 1 1.55-11.38 17.17 17.17 0 0 1 8.05-8.11 28.43 28.43 0 0 1 5.56-2.08c4.5-1.23 9.06-2.18 13.6-3.22 2.08-.48 4.13-1.09 6.2-1.62a28.9 28.9 0 0 1 6.35-.79c1.22 0 2.44-.15 3.66-.28 2.81-.3 5.62-.72 8.44-.93a32.77 32.77 0 0 1 6.64-.09 8.6 8.6 0 0 1 6.93 4.96Zm-169.58-78.29a19.43 19.43 0 0 1 1.65-5.47 26.26 26.26 0 0 1 4.76-7.24 23.24 23.24 0 0 1 9.09-5.62 85.14 85.14 0 0 1 18.49-4.27c3.19-.39 6.39-.74 9.57-1.15 6.31-.8 12.67-1 19-1.77 2.35-.28 4.7-.63 7.05-.93 2.51-.31 5-.53 7.52-.91 4.32-.65 8.7-.72 13-1.32 2.88-.39 5.75-.83 8.64-1.22s6.06-.79 9.1-1.18a5.23 5.23 0 0 0 .68-.07c3.89-1 7.89-1 11.83-1.59a112.39 112.39 0 0 1 12.84-.72 43 43 0 0 1 8.71.49 19 19 0 0 1 5.68 1.73 16.51 16.51 0 0 0 2.51 1.1c3.1 1 5.18 3.24 6.85 5.84a40.52 40.52 0 0 1 5.38 11.84 17.57 17.57 0 0 1 .67 4.07c.07 3.45.79 6.84 1.13 10.26a148.49 148.49 0 0 1 1.07 16.72c0 2 0 4 .09 6 .12 3.61 0 7.2-.23 10.8-.1 2-.1 4-.17 6-.15 3.83-.15 7.67-.53 11.48s-.36 7.8-.9 11.67c-.29 2.13-.39 4.27-.5 6.4-.05.83-.23 1-.93 1-4.62-.45-9.16.37-13.72.88a36.81 36.81 0 0 1-4.81.24 22.38 22.38 0 0 0-7.24 1.08c-2.78.88-5.67 1.27-8.46 2.06-4.12 1.18-8.37 1.78-12.45 3.13a28.06 28.06 0 0 0-7.85 4.17 8.66 8.66 0 0 0-1.52 1.38 19.18 19.18 0 0 0-5.1 12.69v1.61c-.1 1.13.72 2.47-.09 3.31s-2.17.41-3.29.62a39.41 39.41 0 0 1-4.34.46c-3.67.26-7.32.62-11 1-3.28.33-6.58.45-9.87.51-4.36.07-8.73 0-13.1 0-.45 0-.89-.06-1.38-.1a12 12 0 0 1-.39-1.37A36.83 36.83 0 0 0 392.1 219c-1.34-2.67-2.77-5.29-4.18-7.91a62.92 62.92 0 0 1-5-11.83 4.48 4.48 0 0 1-.32-1.92 6.74 6.74 0 0 1 2.13-.33l2-.3c3.56-.55 7.16-.78 10.64-1.75 7.16-.86 14.1-2.76 21.11-4.31 3.06-.67 6-1.69 9-2.58 2-.59 3.94-1.18 6-1.61a20.9 20.9 0 0 0 5.57-2.06 5.45 5.45 0 0 0 2.94-4.6 13.76 13.76 0 0 0-.79-5.41c-.38-1.32-1-2.56-1.46-3.85-.72-2.07-2.35-2.7-4.3-2.78a9.56 9.56 0 0 0-2.05.24c-4.66.88-9.25 2.05-13.82 3.27s-9.17 2.38-13.74 3.63c-3.61 1-7.32 1.54-11 2.4s-7 1.39-10.59 1.95c-1.29.2-2.55.55-3.82.8-.59.11-.86-.1-.91-.71-.09-1-.14-2-.19-3a.68.68 0 0 1 .61-.8c1.81-.31 3.61-.62 5.41-1 2.93-.58 5.86-1.14 8.76-1.82 2.74-.65 5.46-1.44 8.18-2.21a5.79 5.79 0 0 0 1.61-.85c1.75-1.21 2.14-2.24 1.68-4.33-.08-.37-.21-.73-.32-1.1-.66-2.29-.81-2.36-3.27-1.91s-4.77 1.1-7.16 1.64c-1 .22-1.95.34-2.92.55-1.34.3-2.7.54-4 1-2.91 1-6 1.33-8.84 2.45-.55.22-.84 0-1-.59-.27-1.35-.49-2.71-.81-4a35.87 35.87 0 0 0-3.41-9c.49-.58.84 0 1.23 0 1 0 2 .13 3 .05a78.31 78.31 0 0 0 10-1.3c4.55-1 9.09-2 13.57-3.31 1.39-.4 2.82-.69 4.23-1 .45-.11.89-.23 1.33-.36a7.12 7.12 0 0 0 5.52-6.06 8.9 8.9 0 0 0 .15-1.14 74.11 74.11 0 0 0-.63-14.66 34.63 34.63 0 0 0-1.15-4.91 9.57 9.57 0 0 0-.85-1.87 5.11 5.11 0 0 0-4.47-2.71 53 53 0 0 0-9.83.75c-2.8.4-5.61.81-8.41 1.18a27.51 27.51 0 0 0-4 .86c-1.84.54-3.7 1-5.55 1.43a16.85 16.85 0 0 0-8.45 5.25 6.17 6.17 0 0 0-1.76 4.13 26.79 26.79 0 0 0 .87 8.86c.92 2.92 1.64 5.89 2.45 8.84.17.49-.06.6-.49.52-.41-.55-.84-1.09-1.23-1.66a47.1 47.1 0 0 0-14.26-13.46 52.9 52.9 0 0 0-16.1-6.48c-.84-.21-.92-.32-.79-1.18Zm47.09 61a.64.64 0 0 0-1 .18c-.68.92-1.32 1.88-1.95 2.83-.26.38-.45.8-.71 1.18a.32.32 0 0 1-.55 0c-.25-1.19-.49-2.39-.62-3.6a2.84 2.84 0 0 1 .44-1.28c.23-.48.55-.92.77-1.4a.73.73 0 0 0-.15-.85c-.27-.22-.56-.09-.84.07a3.31 3.31 0 0 1-.68.14c0-.5-.1-.87-.11-1.25 0-1.15 0-1.26 1.24-1.48 4.51-.83 9-1.63 13.55-2.46 1.65-.31 3.3-.64 4.94-1 7.5-1.8 15-3.55 22.41-5.82 1.6-.49 3.27-.75 4.91-1.14s3.41-.84 5.1-1.29a17.27 17.27 0 0 1 3.65-.38 2.55 2.55 0 0 1 2.62 1.5 19 19 0 0 1 2.16 8.36c0 2.33-1 3.41-3.41 4.16-.27-.39-.05-.72.1-1.06.22-.49.42-1 .6-1.49s.12-.84-.25-1-.72.12-.88.48c-.4.91-.82 1.81-1.13 2.75a2 2 0 0 1-1.77 1.56c-.37.05-.74.21-1.11.27a.88.88 0 0 1-.64-.12c-.3-.25-.06-.54.07-.8.4-.83.82-1.64 1.2-2.48a6.38 6.38 0 0 0 .46-1.29c.08-.35.12-.79-.36-.94s-.57.19-.71.45c-.32.61-.61 1.24-.9 1.86-.35.77-.71 1.53-1 2.31a3.12 3.12 0 0 1-2.63 2.25c-.36 0-.7.3-1.12.08-.31-.39.06-.68.21-1 1-2 2.12-4.06 3.17-6.1a3.53 3.53 0 0 0 .35-1.07c0-.18-.15-.42-.3-.57s-.43 0-.58.1a7.1 7.1 0 0 0-1.24 1.92q-1.31 2.68-2.64 5.35a18.81 18.81 0 0 1-1 1.79 1.38 1.38 0 0 1-.68.56c-1 .33-2 .59-3 .87-.39-.47 0-.76.15-1 1-1.69 2.13-3.36 3.2-5a1.27 1.27 0 0 0 .29-1.07.59.59 0 0 0-.23-.37.5.5 0 0 0-.43 0 4.54 4.54 0 0 0-1.45 1.74c-1.08 1.76-2.19 3.5-3.2 5.3a2.74 2.74 0 0 1-1.92 1.48 6.77 6.77 0 0 1-3.22.41 7.87 7.87 0 0 1 1.22-2.42c1.66-2.67 3.33-5.32 5-8 .24-.38.55-.75.37-1.26a1.27 1.27 0 0 0-.27-.35.25.25 0 0 0-.41 0 12.2 12.2 0 0 0-1.32 1.57 105.07 105.07 0 0 0-5.94 10.07 2.24 2.24 0 0 1-2 1.52 24.38 24.38 0 0 0-3.08.64c-.27-.6.1-1 .31-1.31 1.16-2 2.36-3.93 3.54-5.9q1.13-1.86 2.22-3.75a2.45 2.45 0 0 0 .25-.86.5.5 0 0 0-.23-.35.64.64 0 0 0-.43-.05c-.43.1-.55.5-.76.81a122.71 122.71 0 0 0-6.35 10.63 2.46 2.46 0 0 1-1.87 1.46 35 35 0 0 1-4.25.73c-.18-.51.09-.79.3-1.09 1-1.44 2-2.87 3-4.32a12.5 12.5 0 0 0 .92-1.58.5.5 0 0 0-.76-.61c-.51.57-1 1.13-1.49 1.74a36.54 36.54 0 0 0-3.21 5 2.75 2.75 0 0 1-2.28 1.62 18.37 18.37 0 0 1-3.4.3c-.08-.85.48-1.32.84-1.88 1.59-2.43 3.2-4.85 4.78-7.28a2.88 2.88 0 0 0 .72-1.65.62.62 0 0 0-.2-.39.39.39 0 0 0-.6 0c-.57.71-1.16 1.42-1.66 2.18-1.76 2.69-3.54 5.36-5.19 8.11a3.31 3.31 0 0 1-3.17 1.84h-1.83a.45.45 0 0 1-.32-.68c1.19-1.69 2.4-3.36 3.6-5a3.69 3.69 0 0 0 1-1.78.78.78 0 0 0-.22-.61.62.62 0 0 0-.6.08 15.05 15.05 0 0 0-1 1.21 65.4 65.4 0 0 0-4.42 6.43 2.23 2.23 0 0 1-2 1.24c-1.12 0-1.61-.38-1.47-1.46a3.41 3.41 0 0 1 .46-1.27c.71-1.18 1.46-2.34 2.2-3.5.33-.51.7-1 1-1.54a.64.64 0 0 0-.18-.91ZM379 172.75c0-1-.55-1.91-.23-2.91.87-.27 1.73-.56 2.59-.82q3.84-1.14 7.69-2.24a7.63 7.63 0 0 1 1.35-.24 53.07 53.07 0 0 0 7.37-1.56c1.77-.45 3.6-.69 5.4-1a.65.65 0 0 1 .71.43 4.79 4.79 0 0 1 .41 2.69 1.57 1.57 0 0 1-.57 1 4.11 4.11 0 0 1-2 1c-2.49.7-5 1.4-7.51 2-3.93.92-7.88 1.75-11.83 2.6-.67.14-1.37.17-2.05.25-.88-.04-1.33-.14-1.33-1.2Zm-5.58-22.06c-.9-3.4-1.94-6.76-2.93-10.13a30.08 30.08 0 0 1-1.3-8.35c0-2.38 1.07-4 2.65-5.57 2.5-2.53 5.74-3.43 9-4.32a108 108 0 0 1 11-2.13c3.71-.61 7.42-1.06 11.16-1.31a18.67 18.67 0 0 1 3.66.09 2.75 2.75 0 0 1 2.34 1.63 13.35 13.35 0 0 1 1 2.32 31.08 31.08 0 0 1 1.25 7c.06 2.14.37 4.27.29 6.09a28.61 28.61 0 0 1-.28 6.5 4.79 4.79 0 0 1-3.47 4.12c-2.2.66-4.39 1.32-6.62 1.89-4.07 1-8.13 2.14-12.25 2.92s-7.94 1.66-12 1.62a3.11 3.11 0 0 1-1.79-.25 3.57 3.57 0 0 1-1.7-2.12Zm-45.5-19.19a2.41 2.41 0 0 1 .88-.07c1.11.26 2.23.53 3.33.85 3.15.92 6.31 1.79 9.43 2.79a37.83 37.83 0 0 1 9.7 4.59c.69.47 1.32 1 2 1.55a21.24 21.24 0 0 1 4.81 4.84 38 38 0 0 1 6.23 13.15 18.7 18.7 0 0 1 1 4.68 2 2 0 0 1 .34 1.56c0 .26.07.52.11.79a3 3 0 0 1 .37 2 29.5 29.5 0 0 1 .76 4.94c.32 2.4.5 4.83.73 7.24a3.3 3.3 0 0 1 .33 2.07l.09 1.13a2.32 2.32 0 0 1 .34 1.62 1.56 1.56 0 0 1 .13 1.1 2.19 2.19 0 0 1 .38 1.66c.29 1.11.62 2.21.88 3.32a35.08 35.08 0 0 0 4.41 10.5c1.2 1.95 2.52 3.83 3.79 5.73 1.56 2.35 3.17 4.68 4.69 7.05a24.85 24.85 0 0 1 2.86 6 15.48 15.48 0 0 1 .38 8.79 10 10 0 0 1-1.35 4.57 3.48 3.48 0 0 1-.7.88.48.48 0 0 1-.61 0 .28.28 0 0 1-.12-.4 4.3 4.3 0 0 1 .27-.62 13.37 13.37 0 0 0 1.65-5.21c.07-.6.24-1.19.36-1.79a19.83 19.83 0 0 0-3.39-11.24c-1.63-2.58-3.37-5.08-5-7.63-1.39-2.1-2.79-4.19-4.12-6.32a36.9 36.9 0 0 1-4.41-11.23 6.69 6.69 0 0 1-.08-.91 3.32 3.32 0 0 1-.45-2.18 2.19 2.19 0 0 1-.37-1.63l-.09-.74a3.37 3.37 0 0 1-.37-2l-.13-1.13a3.17 3.17 0 0 1-.32-2.09l-1.4-11.49c0-.25-.07-.5-.1-.74a2.1 2.1 0 0 1-.32-1.56c-.64-2.59-1.21-5.2-1.95-7.77a36.1 36.1 0 0 0-5.36-11.08 41.17 41.17 0 0 0-5.16-5.48.54.54 0 0 1-.52-.39 44.28 44.28 0 0 0-7.27-3.84c-1.57-.59-3.12-1.23-4.72-1.72-3.66-1.11-7.33-2.14-11-3.19-.36-.1-.76-.14-.94-.53-.11-.16-.05-.41 0-.42Zm-15.53 5.65c.29-.08.4.14.46.35.16.57.29 1.16.43 1.74a21.92 21.92 0 0 0 7.4 7.82c.37.25.7.55 1.05.83a.18.18 0 0 1 .26.13.52.52 0 0 1 .56.36.37.37 0 0 1 .38.18.38.38 0 0 1 .44.31.63.63 0 0 1 .65.39 73.55 73.55 0 0 1 8.19 4.55 17.76 17.76 0 0 1 5.62 5.66 37.22 37.22 0 0 1 5.1 12.93 4.19 4.19 0 0 1 0 1.12c0 .09-.21.18-.33.25a.23.23 0 0 1-.37-.14 10.77 10.77 0 0 1-.38-1.31 34.44 34.44 0 0 0-2.64-8c-.27-.63-.57-1.25-.88-1.87a19.64 19.64 0 0 0-8-8.58c-1.86-1-3.74-2.07-5.6-3.13-.8-.45-1.56-1-2.34-1.44a.36.36 0 0 1-.45-.3l-.49-.26c-.2 0-.29-.06-.33-.24l-.1-.06a21.15 21.15 0 0 1-7.45-6.74 4.09 4.09 0 0 1-.9-1.8 3.32 3.32 0 0 1-.77-2.06.58.58 0 0 1 .49-.69Zm-4.2 56.85c-.79-.3-1.59-.56-2.39-.82a12.69 12.69 0 0 1-8.42-7.8 7.88 7.88 0 0 1-.4-3.85 14.31 14.31 0 0 0-1-7 20.44 20.44 0 0 1-1-3.77 6.18 6.18 0 0 1 1-4.6c.17-.25.33-.51.52-.75a8.7 8.7 0 0 0 1.71-6.48 23.84 23.84 0 0 1 .74-9.32 8.93 8.93 0 0 1 .3-.87c.08-.21.21-.4.33-.64 2.88 1.35 5.57 2.62 8.27 3.87a18.27 18.27 0 0 1 3.57 2.05 8.44 8.44 0 0 0 5.09 1.85c.53 0 1.07.09 1.6.09a5.39 5.39 0 0 1 4.1 1.72c1.12 1.16 2.16 2.39 3.28 3.53s2.3 2.22 3.54 3.41a12.12 12.12 0 0 0-1.36 1.28 9.74 9.74 0 0 0-1.13 1.71.75.75 0 0 0 .24 1 .81.81 0 0 0 1.05-.13c.46-.5.8-1.12 1.27-1.61 1.33-1.38 2.4-1.15 3.06.64a10.16 10.16 0 0 1 .2 5.22 9.11 9.11 0 0 1-1 3.05c-.56.31-.79-.24-1.15-.45a3.4 3.4 0 0 0-4.83 1 5.54 5.54 0 0 0 .07 6.82 4.12 4.12 0 0 1 1 2.89 51 51 0 0 0 .77 8c.05.3.12.6.16.9.25 1.93.26 2-1.73 2.43a57.56 57.56 0 0 1-9.85 1.63c-.69 0-1.37.16-2.06.24-1.33.16-1.32.16-1.79-1.19a6.24 6.24 0 0 0-3.76-4.05Zm20.05-12.86c.12.18.07.3-.13.35s-.31.11-.42.06a1.1 1.1 0 0 1-.53-.39 2.87 2.87 0 0 1-.1-3 .52.52 0 0 1 .35-.2.34.34 0 0 1 .37.42c0 .23-.08.45-.15.84a2.38 2.38 0 0 0 .61 1.93Zm-18.8 16.59a.39.39 0 0 1 .56.15c.21.45.67.81.49 1.46a4 4 0 0 1-2.31-.42c.14-.74.76-.92 1.26-1.18Zm-34.29 95.63c.1-2.29.27-4.57.32-6.86 0-2-.08-4-.1-6a17.76 17.76 0 0 1 .1-2.06c.08-.83.36-1 1.2-.93.44.05.72.25.73.71v3.43a10 10 0 0 0 .19 1.82.73.73 0 0 0 .86.57.68.68 0 0 0 .59-.61c.06-.76.07-1.53.06-2.29 0-1-.09-2-.11-3 0-.46.29-.67.73-.69s.81 0 .88.51c.12.83.19 1.67.27 2.51 0 .38 0 .76.09 1.14.13.86.41.95 1.46.51.47-.08.73 0 .53.57a.86.86 0 0 1 0 .23 31.59 31.59 0 0 1-7.39 11.37c-.56-.14-.43-.58-.41-.92Zm-15.63 11.4a8.48 8.48 0 0 0 1.36-3.6 14.12 14.12 0 0 1 3.24.76 6.78 6.78 0 0 0 1.33.32.7.7 0 0 0 .69-.5.62.62 0 0 0-.28-.79 2.69 2.69 0 0 0-.8-.43c-.95-.29-1.91-.55-2.86-.83-.55-.17-1.28.07-1.61-.63-.18-.39.5-.76 1.63-.81a24.85 24.85 0 0 0 4.3-.68 6.64 6.64 0 0 1 4.67.53 22.07 22.07 0 0 0 12.09 1.9 17.1 17.1 0 0 1 3.43 0 30 30 0 0 0 3.67.15 13.69 13.69 0 0 1 5 .8c2.6.91 5.21 1.79 7.81 2.7a78.49 78.49 0 0 0 13.3 3.35l4.3.7a8.06 8.06 0 0 0 3.42-.15 2.2 2.2 0 0 0 1.89-2.26 7.5 7.5 0 0 0-.09-1.83c-.88-4.59-1.48-9.22-2-13.85-.51-4.41-.9-8.84-1.12-13.28a29.27 29.27 0 0 1 .47-8.45 3.23 3.23 0 0 0 0-1.82 1.16 1.16 0 0 0-1.26-.75c-.53.13-1.08.71-.89 1.16.83 2-.15 3.9-.07 5.86.1 2.45 0 4.89.29 7.34s.34 4.73.59 7.09q.85 8 2.15 15.92a17.89 17.89 0 0 1 .24 2.05 1 1 0 0 1-1 1.26 11.85 11.85 0 0 1-3.2-.11 101.8 101.8 0 0 1-21.5-5.64c-1.14-.42-2.31-.81-3.47-1.18a15.28 15.28 0 0 0-4.29-.7c-1.3 0-2.61 0-3.91-.11a25.29 25.29 0 0 0-4.35.08 29 29 0 0 1-5.51-.18 9.72 9.72 0 0 1-1.56-.35c-.43-.12-.5-.51-.14-.86.71-.7 1.43-1.38 2.13-2.09a30.9 30.9 0 0 0 7.15-11.4c3.22-9 7.57-17.39 12-25.79a121.84 121.84 0 0 0 9-21.34 59.4 59.4 0 0 1 3-7.93 23.85 23.85 0 0 0 2-13.22 56 56 0 0 0-2.47-12.17 8.25 8.25 0 0 1-.32-1.57c-.05-.38.22-.53.56-.56a.81.81 0 0 1 .22 0c2 .23 2.11.24 2.44 2.28.27 1.66.4 3.34.6 5 .06.52 0 1.11.73 1.26.5.12.87-.39.87-1.33A20.29 20.29 0 0 0 313 204c-.16-.75-.26-1.51-.37-2.27a.46.46 0 0 1 .34-.51.9.9 0 0 1 .21-.08c2.18-.36 2.64-.72 2.8 2.09.07 1.38.07 2.76.16 4.13.05.86.5 1.39 1 1.26.67-.17.67-.75.68-1.29a44 44 0 0 0-.41-5.49c-.1-1-.06-1 .91-1.21 2.33-.49 2.45-.44 2.49 2 0 1.6-.13 3.21-.18 4.82a2.31 2.31 0 0 0 .2 1.55.65.65 0 0 0 1.11.07 2.74 2.74 0 0 0 .44-1.75c0-1.76 0-3.52.05-5.28 0-.46 0-.92-.05-1.38a.74.74 0 0 1 .62-.82c.45-.1.89-.23 1.34-.31.74-.14 1.06.05 1.1.75.07 1.45.09 2.91.14 4.36 0 .69 0 1.38.09 2.07a.87.87 0 0 0 .48.73.56.56 0 0 0 .8-.15 2.1 2.1 0 0 0 .27-1.32c0-1.53-.1-3.06-.14-4.6 0-.53-.05-1.07-.05-1.6 0-.29 0-.59.34-.77s.56.11.65.7c.27 1.82.55 3.64.76 5.46.45 4 1.33 7.85 2.15 11.74.68 3.22 1.33 6.44 2 9.67a45.19 45.19 0 0 1 .65 8.69 41 41 0 0 0 .24 6 13.44 13.44 0 0 0 3.53 7.33 21.13 21.13 0 0 0 2.72 2.46q2.4 1.77 4.94 3.35c2.46 1.55 5 3 7.47 4.51a25.8 25.8 0 0 0 7.62 3.1c.94.22 1 .33 1 1.21.2 5.43.49 10.86.35 16.3a102.29 102.29 0 0 0 .31 11.48v.46c.2 10.41.9 20.82.63 31.24-.06 2.69-.37 5.35-.63 8-.4 4.11-.93 8.21-1.7 12.28a37.51 37.51 0 0 1-2.29 8.39 16.4 16.4 0 0 1-3.29 4.95 12.88 12.88 0 0 1-11.93 3.88 79.07 79.07 0 0 1-11.17-2.61 65.45 65.45 0 0 1-8.25-3.47c-3.25-1.55-6.4-3.28-9.48-5.14-7.47-4.53-15.17-8.64-22.94-12.6-5.12-2.61-10.24-5.2-15.35-7.81-1.09-.56-2.17-1.14-3.23-1.76a65.42 65.42 0 0 0-11.13-5.42 12.85 12.85 0 0 1-2.28-1.08 4.41 4.41 0 0 1-2-4.56 3.18 3.18 0 0 1 1.11-2.2c.61-.48 1.32 0 2 .15a20.8 20.8 0 0 0 4.05.76 7 7 0 0 0 1.37-.1.56.56 0 0 0 .49-.65.76.76 0 0 0-.34-.55 5.07 5.07 0 0 0-1.1-.28c-1.58-.3-3.16-.57-4.73-.91-.86-.18-1-.41-1-1.26v-3.75c1.26.29 2.29.55 3.33.76a6.18 6.18 0 0 0 1.36.08.73.73 0 0 0 .65-.58.61.61 0 0 0-.4-.73 12.22 12.22 0 0 0-1.31-.38c-.82-.21-1.64-.37-2.45-.61a.46.46 0 0 1-.23-.73Zm64.55 82.9a19.73 19.73 0 0 1-8.71 8.45l-1.94-3c.25-.67.85-.75 1.29-1a13.5 13.5 0 0 0 3.9-3.85 1.38 1.38 0 0 0 .35-1.05.87.87 0 0 0-.38-.53.73.73 0 0 0-.63 0 2.3 2.3 0 0 0-.62.66 12.59 12.59 0 0 1-5.37 4.34c-1-.9-2-1.83-3-2.77a.74.74 0 0 1-.07-1.17 40.29 40.29 0 0 1 4.7-5.33 5.64 5.64 0 0 0 .66-.63c.26-.31.41-.67.05-1a.77.77 0 0 0-1-.05 18.27 18.27 0 0 0-1.6 1.31 50.94 50.94 0 0 0-4.47 5.1 8.58 8.58 0 0 1-2.1-1.68c-.63-.55-1.24-1.14-1.83-1.74a.53.53 0 0 1 .11-.8c.63-.56 1.3-1.08 1.93-1.63a24.38 24.38 0 0 0 3.28-3.53 3.86 3.86 0 0 0 .49-.77.69.69 0 0 0-.16-.83.62.62 0 0 0-.84 0 15.83 15.83 0 0 0-1.27 1.32 24.74 24.74 0 0 1-4.58 4.15c-.64.45-.82.43-1.38-.11-.93-.91-1.86-1.82-2.77-2.74s-.88-.92.19-1.71a28.73 28.73 0 0 0 4.4-4.35 1.9 1.9 0 0 0 .6-1.2.73.73 0 0 0-.79-.62 2.2 2.2 0 0 0-1 .86 25.61 25.61 0 0 1-5.29 4.73c-.14 0-.32 0-.41-.09-3.37-3.09-3.37-2-.59-5.81a22.26 22.26 0 0 1 1.89-2 5 5 0 0 0 .74-.86.8.8 0 0 0 0-.64.64.64 0 0 0-.79-.29 2.63 2.63 0 0 0-.77.46 16.47 16.47 0 0 0-2.87 3c-.5.67-1 1.32-1.61 2.08a5.53 5.53 0 0 1-2.09-2c-.22-.28 0-.59.15-.84a50.36 50.36 0 0 1 4.28-5.39c.31-.34.63-.66.92-1a.73.73 0 0 0-1-1 9.93 9.93 0 0 0-1.35 1.24c-1.21 1.39-2.37 2.81-3.56 4.21l-.81 1c-.18 0-.28 0-.32-.08-4.21-4.31-4.07-2.63-.17-6.73.84-.88 1.85-1.6 2.78-2.4.23-.2.47-.39.69-.6s.58-.73.28-1.21-.72-.37-1.21 0a45.26 45.26 0 0 0-5.06 4.32c-.59.59-1.21 1.14-1.92 1.8a31.74 31.74 0 0 1-2.89-3.3c0-.69.61-.89 1-1.2a32.68 32.68 0 0 0 4.79-5.25 1.38 1.38 0 0 0 .29-.61.72.72 0 0 0-.36-.77.51.51 0 0 0-.64 0c-.49.47-1 1-1.42 1.48a24.82 24.82 0 0 1-3.69 3.77l-.74.54a.69.69 0 0 1-1-.07c-.74-.86-1.48-1.74-2.24-2.64a28.65 28.65 0 0 1 4.41-5.38c.27-.27.58-.5.86-.76.6-.56.72-1 .35-1.34s-.79-.29-1.44.2a20.09 20.09 0 0 0-3 2.87c-.6.7-1.18 1.42-1.76 2.12s-.81.76-1.41 0c-1-1.17-1.92-2.37-2.91-3.6a60.35 60.35 0 0 1 4.84-5.31 2.5 2.5 0 0 0 .82-1.08.53.53 0 0 0-.21-.6c-.17-.12-.45-.25-.6-.19a3 3 0 0 0-.94.62c-1.16 1.12-2.28 2.27-3.42 3.4a6.92 6.92 0 0 1-1.81 1.64 40.56 40.56 0 0 1-2.8-3.53c-.32-.46-.06-.87.27-1.22 1.34-1.36 2.69-2.72 4-4.09.43-.43.86-.87 1.25-1.34a.61.61 0 0 0 0-.83.68.68 0 0 0-.83-.2 4 4 0 0 0-.9.69c-1.5 1.42-3 2.86-4.48 4.28-.73.7-.92.72-1.47 0q-2.37-3.09-4.7-6.23a.61.61 0 0 1 .36-1.05c.67-.17 1.34-.31 2-.44.3-.06.61 0 .91-.12a2.91 2.91 0 0 0 2.48-2.64 7.63 7.63 0 0 0-.1-2.52 14.08 14.08 0 0 1-.3-1.8c-.1-1.28.33-1.58 1.43-1.05a12 12 0 0 1 1 .54c8.06 4.73 16.59 8.56 24.84 12.93 6.15 3.26 12.31 6.5 18.28 10.1a128 128 0 0 0 14.61 7.71 59 59 0 0 0 8.66 3c.67.17 1.34.34 2 .54a.47.47 0 0 1 .3.55c-.07.29-.21.57-.31.86-.7 2.1-1.48 4.18-2.1 6.31a77.87 77.87 0 0 1-4 10 12.67 12.67 0 0 1-2.79 3.9 20.24 20.24 0 0 0-3.84 5.12Zm1.72 2.67-1.71 9.85c-.09 0-.32 0-.36-.09a55.88 55.88 0 0 0-3-5.45 32.8 32.8 0 0 0 4.5-5.36c.91-.06.63.56.57 1.06Zm-37.52-18.63c-1.28.61-2.56 1.29-3.88 1.84-1.69.7-3.41 1.31-5.13 2a20.08 20.08 0 0 1-8.81.91 2.62 2.62 0 0 1-2.41-1.76 10.43 10.43 0 0 1-.61-5.62c.65-5 3.2-9 6.85-12.35q.5-.45 1 .12c.82 1 1.7 2 2.52 3 2.9 3.55 6 6.9 9.21 10.21a4.36 4.36 0 0 1 1.26 1.66Zm-29.68-49.6c1.08.56 2.25.95 3.38 1.42l2.11.88c.3.12.59.33.46.67-.54 1.36-.16 2.71 0 4.06a11.19 11.19 0 0 1 .05 1.83c-.06.86-.38 1.17-1.27 1.35l-4.24.85c-1.16-.91-1.77-2.27-2.66-3.39a96.93 96.93 0 0 0-10.2-10.85c-2.25-2.08-4.7-3.91-7.21-5.85h15.73c.29 0 .61 0 .81.28s-.07.57-.16.85a6.19 6.19 0 0 0 3.2 7.91Zm-17.67-39.72c5.49.25 11 .55 16.49.46a6.92 6.92 0 0 1 .91 0 .62.62 0 0 1 .59.58v.45c0 3.06.08 6.11.1 9.17 0 .6-.08 1.21-.11 1.78-.54.35-.92 0-1.31-.2-3.25-1.53-6.57-2.87-9.92-4.14-2.72-1-5.3-2.33-7.9-3.6-2.1-1-3.62-2.73-5.52-4.85ZM230.79 281a30.39 30.39 0 0 1 2.24 2.3 23.92 23.92 0 0 0 8.33 6.32c3.55 1.6 7.18 3 10.79 4.48 1.49.61 3 1.22 4.44 1.87a16.61 16.61 0 0 1 1.81 1 .86.86 0 0 1 .47 1.15 3.41 3.41 0 0 0-.05 2.25 3.27 3.27 0 0 1-.72 3.21 5.6 5.6 0 0 0-1.28 4.71 5.51 5.51 0 0 1-.25 3.18c-4.35-.15-8.69 0-13-.23-3-.14-6 0-9 0a29.73 29.73 0 0 1-5.94-.45 14.52 14.52 0 0 1-6.23-2.76 27.8 27.8 0 0 0-6.54-3.75 11.78 11.78 0 0 1-6-5.73 5.29 5.29 0 0 1-.36-.85 1.69 1.69 0 0 1 0-.45c.55-.42 1 0 1.46.21a17.07 17.07 0 0 0 10.82.42c1.85-.45 3.68-1 5.5-1.59a14.55 14.55 0 0 0 3.31-1.57 5.5 5.5 0 0 0 2.21-7.36c-.53-1.18-1.19-2.31-1.76-3.48a10.18 10.18 0 0 1-1.22-3.17c.45-.24.74.1.97.29Zm-52.46 17.65c-1-.07-2-.15-3-.28a6.38 6.38 0 0 1-6-6.15 83.56 83.56 0 0 1-.3-11.94c.28-5.12.69-10.23 1.06-15.35.17-2.37.35-4.74.57-7.1.37-4 .77-7.93 1.17-11.89.66-6.55 1.67-13.06 2.62-19.57s2.1-12.84 3.58-19.17a31 31 0 0 1 1.87-5.66c.38-.83.86-1.62 1.32-2.41a4.24 4.24 0 0 1 2.89-2.08c1-.2 1.94-.42 2.89-.63.58.46.29 1 .17 1.49-.58 2.37-1.23 4.73-1.8 7.12-1.23 5.22-1.94 10.53-2.65 15.84s-1.44 10.77-2.1 16.17q-.87 6.94-1.6 13.92c-.4 3.65-.85 7.3-1 11a75.14 75.14 0 0 0 .46 13.07c.11.75.29 1.5.46 2.25.5 2.09 1.72 3.14 4.07 3.39 1.22.13 2.45.08 3.68.12q11.47.33 23 .68c5.81.18 11.63.41 17.44.56a1.46 1.46 0 0 1 1.55 1c.61 1.4 1.36 2.74 2 4.11a19.61 19.61 0 0 1 .8 1.9 3.17 3.17 0 0 1-1.11 3.69 9.82 9.82 0 0 1-3.2 1.76c-1.95.68-3.93 1.27-5.89 1.91a13.47 13.47 0 0 1-9-.3c-.79-.29-1.6-.54-2.41-.76a2.85 2.85 0 0 0-1.12-.1 1.58 1.58 0 0 0-1.35 1.6c0 .71.57 1.28.35 2a1.39 1.39 0 0 1-.39.19c-4.44.22-8.86.65-13.3.61-2 0-4-.17-6-.33-3.15-.26-6.44-.42-9.73-.63Zm-100.1 3.71a13 13 0 0 1 3.83-6.08 9.06 9.06 0 0 1 6.23-2.11 37.34 37.34 0 0 0-2.64 7.56 17.89 17.89 0 0 1-1.59 4 4.16 4.16 0 0 1-2.19 1.9c-1.47.56-1.86.38-2.88-.85a4.37 4.37 0 0 1-.76-4.39Zm11.23 58.87a41.79 41.79 0 0 0-4.25-7.32 23.77 23.77 0 0 0-14.27-8.85 117.66 117.66 0 0 1-12.39-3.28c-3.24-1.06-6.53-2.18-9.21-4.47 0-.4.09-.73.62-.46l6.68 1.51a10.6 10.6 0 0 0 1.56.34c3.68.2 7.25 1.09 10.88 1.61a13.08 13.08 0 0 0 7.16-1 4.41 4.41 0 0 0 2.5-2.81 14.36 14.36 0 0 0 .74-5c-.19-7.15-1.1-14.16-3.81-20.85a40.84 40.84 0 0 0-4.82-8.54c-.26-.37-.5-.76-.75-1.14-.32-.57-.3-.95.49-.92 1.89 1.89 3.79 3.77 5.66 5.67a15.51 15.51 0 0 1 3.52 6.1 33.71 33.71 0 0 1 1.73 10.82c0 3.14-.06 6.28-.07 9.42a25.15 25.15 0 0 0 2.62 11.76 97.4 97.4 0 0 0 5.07 8.72c2.09 3.2 3.9 6.56 5.74 9.9.26.48.26.86-.25 1.15l-3.11 1.81c-.72-1.4-1.37-2.79-2.04-4.14ZM85.77 370a59.5 59.5 0 0 0 8.51-4l.4-.22c.69-.35.89-.29 1.27.39.89 1.61 1.73 3.24 2.66 4.82a80.33 80.33 0 0 0 5.47 8.22 39.86 39.86 0 0 0 9.26 9.16 2.67 2.67 0 0 1 .49.46c0 .05 0 .15.07.32-1.29.58-2.62 1.11-3.9 1.75-2 1-4.08 2.11-6.09 3.21a1.49 1.49 0 0 1-1.7-.05 25.44 25.44 0 0 1-6.54-5.73A119.76 119.76 0 0 1 87 375.9a17.56 17.56 0 0 1-1.88-4.42c-.34-1.08-.33-1.16.65-1.48Zm-56.67 6.72a119.28 119.28 0 0 1-6.36-10.88 15.29 15.29 0 0 1-1.82-6.58 6.66 6.66 0 0 1 1.46-4.26 17.44 17.44 0 0 1 3.21-3.27 5 5 0 0 1 5.95-.57 30.74 30.74 0 0 1 8.32 6.77 1.32 1.32 0 0 1 .22 1.47 62 62 0 0 1-6.91 13.93 20.15 20.15 0 0 1-3 3.47c-.47.45-.75.43-1.07-.08Zm46.48 43.85a28.67 28.67 0 0 1-3.8 4.29c-2.9 2.7-6.37 3.11-10.08 2.52a5.91 5.91 0 0 1-2.7-1.64 44.35 44.35 0 0 1-10.46-13c-3.71-6.87-7.3-13.79-10.61-20.86a74.05 74.05 0 0 0-4.58-8.21c-1-1.55-1.92-3.11-2.82-4.58.09-.23.1-.32.15-.37 4.81-4.53 7.61-10.28 10-16.29a7.83 7.83 0 0 1 1.03-2.43 3 3 0 0 1 1.34.88c2.11 1.78 4.35 3.37 6.57 5a40.28 40.28 0 0 0 10.38 5.3 34.89 34.89 0 0 0 13.1 1.92 29.79 29.79 0 0 0 7.4-1.52 6.5 6.5 0 0 1 2.62-.66c.07.08.16.12.17.19 1.07 4.33 3.52 7.93 6.06 11.48 1.07 1.5 2.18 3 3.25 4.46a30.57 30.57 0 0 0 7.78 7.73c.24.17.47.37.81.63a5.57 5.57 0 0 1-1.56 1.22 110.08 110.08 0 0 0-11.37 8.56 49.16 49.16 0 0 0-8.3 9.17c-1.48 2.07-2.91 4.15-4.38 6.21Zm18.28.38c-.54 1.51-.55 1.51-2.08 1.53h-3.91c-3.21 0-6.43.05-9.64.05-.5 0-1 .19-1.49-.2 0-.1-.1-.2-.07-.24 2.82-3.81 5.21-7.92 8.43-11.44A84.53 84.53 0 0 1 96.28 401c.66.22.5.66.5 1-.06 2.83-.42 5.64-.75 8.45a52.88 52.88 0 0 1-1.6 8.54c-.19.64-.34 1.32-.57 2.01Zm16.19.08a4 4 0 0 1-.07.69.79.79 0 0 1-.78.68h-14c.45-2 .89-3.88 1.28-5.74a69.14 69.14 0 0 0 1.81-15.43 2.6 2.6 0 0 1 1.41-2.6c2-1.19 4-2.48 6-3.71a11 11 0 0 1 1.15-.56c.63.39.62 1 .72 1.46.57 2.76 1.45 5.46 1.58 8.31 0 .75.29 1.5.4 2.25a87.34 87.34 0 0 1 .5 14.62Zm146 .5c-.11.4-.53.22-.8.23h-3.22c-6.43 0-12.86.1-19.3.12q-58.83.25-117.66.47c-1 0-2.15.43-2.85-.3s-.27-1.75-.33-2.65c-.09-1.37 0-2.75-.08-4.13a83.81 83.81 0 0 0-2.45-18.39 9.49 9.49 0 0 1-.21-1.59c0-.61-.58-1.17-.3-1.77.36-.76 1.22-.86 1.89-1.19a68.11 68.11 0 0 1 9.19-3.54c3.78-1.23 7.55-2.48 11.3-3.8a104 104 0 0 0 14.11-6.6q8.5-4.56 16.6-9.8c7.64-4.95 15.25-10 22.86-15 2.88-1.89 5.57-4.05 8.26-6.2a2.47 2.47 0 0 1 1.31-.79c.85 2 1.7 3.88 2.45 5.79a55.36 55.36 0 0 0 3.56 7.45c4.17 7.23 8.41 14.42 13.24 21.23 3.37 4.74 6.86 9.41 10.59 13.88a81.2 81.2 0 0 0 9.28 9.54c4.25 3.63 8.43 7.35 12.89 10.72a49.6 49.6 0 0 0 8.14 5.14 5.64 5.64 0 0 1 .81.42c.25.23.82.23.67.76Zm38.53-.19a57.75 57.75 0 0 1-16.14 3.26 41.82 41.82 0 0 1-18.12-3.32 70.72 70.72 0 0 1-18.49-11.81c-2.4-2-4.76-4.1-7.14-6.14a93 93 0 0 1-12.86-14 195.1 195.1 0 0 1-15.26-22.36c-.3-.54-.62-1.06-1-1.57a92.82 92.82 0 0 1-8.57-16.98c-.39-1-.85-2-1.37-3.17.38-.33.9-.75 1.4-1.21a53.23 53.23 0 0 0 4.65-5.08 2.22 2.22 0 0 0 .53-1c.06-.33-.42-.72-.75-.66-.59.1-.89.56-1.26.94-1.32 1.39-2.55 2.87-4 4.16a98.93 98.93 0 0 1-12 9.58c-9.11 6.07-18.2 12.17-27.51 17.91q-9.19 5.67-18.85 10.46a106.78 106.78 0 0 1-13.47 5.21c-2.17.74-4.38 1.36-6.54 2.14a2.6 2.6 0 0 1-2.38-.25 24.26 24.26 0 0 1-3.73-2.65 39.94 39.94 0 0 1-5.37-5.66A93 93 0 0 1 98 366.49c-1.39-2.49-1.38-2.08.85-3.49 6.87-4.32 13.66-8.74 20.22-13.53 4.94-3.62 9.85-7.28 14.85-10.81 4.51-3.18 9-6.41 13.3-9.82a164.61 164.61 0 0 1 20-13.4c6.9-4 13.74-8 20.61-12.05l.4-.22c4.13-2.24 3-1.95 7.34-1.87a58.17 58.17 0 0 0 7.8-.27c1.59-.19 3.21-.18 4.81-.28a1.39 1.39 0 0 1 1.36.66 14.31 14.31 0 0 0 6.93 5.08 16.22 16.22 0 0 1 4.14 2.42 17.32 17.32 0 0 0 11 4 12.46 12.46 0 0 1 7 2.36 49.89 49.89 0 0 1 6.53 5.05 81 81 0 0 1 12.44 14.1A213.31 213.31 0 0 0 271 351.7c.88 1.05 1.74 2.12 2.7 3.29-.68.71-1.28 1.38-1.93 2a19.66 19.66 0 0 0-5.94 11.39 15.84 15.84 0 0 0 0 4.56 3.16 3.16 0 0 1 .07 1.81 20.46 20.46 0 0 1-4.89-2.7c-5.36-3.7-10.56-7.6-15.78-11.49q-13.25-9.9-26.52-19.76a6.29 6.29 0 0 0-2.16-1.27.82.82 0 0 0-1 .38.78.78 0 0 0 .29 1c.74.54 1.51 1.05 2.25 1.59q16.77 12.48 33.53 25c2.89 2.15 5.85 4.19 8.78 6.28a30.33 30.33 0 0 0 7.58 3.77 11.11 11.11 0 0 0 2.67.6 20.77 20.77 0 0 0 9.28-1 79.33 79.33 0 0 0 8.21-3.54l1.46-.74c3.11 3 6.25 5.92 9.26 9 2.22 2.24 4.57 4.32 6.88 6.44 1.53 1.39 3.08 2.76 4.58 4.18.72.68 1.39 1.43 2 2.18a7.81 7.81 0 0 1 1.78 4.61 15.85 15.85 0 0 1-2.49 9.62 20 20 0 0 1-7 7.43 52 52 0 0 1-10.06 5.01Zm5.11 0c.35-.71 1.07-.8 1.59-1.15s1.19-.68 1.78-1 1.34-.74 2-1.13 1.16-.74 1.71-1.14 1.1-.82 1.62-1.27 1-.94 1.53-1.46c1 1.4 1.68 3 3 4.06a34.81 34.81 0 0 0 4.19 3c-2.19.2-15 .29-17.45.08Zm19.66-1.8c-.16.46-.41.66-.82.48-3.16-1.37-5.83-3.27-7.07-6.69a1.23 1.23 0 0 1 .15-1.29 33.12 33.12 0 0 0 3.26-5.71c1.43 3 3 5.66 4.05 8.53a7 7 0 0 1 .4 4.67Zm3.23 1.74c-1.74 0-2.05-.37-1.79-2a11.27 11.27 0 0 0-1-6.23c-.65-1.54-1.43-3-2.17-4.53-.37-.75-.77-1.49-1.16-2.23a5.82 5.82 0 0 1-.75-3.92 27.44 27.44 0 0 0 .05-4.46l3.71-2.18a20.41 20.41 0 0 1 2.71 5 15.69 15.69 0 0 1 1.2 7.39c-.15 2-.1 4-.12 5.95a16 16 0 0 0 1 6.74 1.88 1.88 0 0 1-1.71.46Zm21.63 0c-5.36 0-10.72.07-16.09.08-1.89 0-1.89 0-2.39-1.75a12.5 12.5 0 0 1-.52-2.93c-.19-3.59-.17-7.19 0-10.79a34.45 34.45 0 0 1 .45-3.64c.5-3.41.94-6.82 1.54-10.21a58.52 58.52 0 0 1 2.18-8.19 5.7 5.7 0 0 1 .85-1.35 19.61 19.61 0 0 0 1.77-2.67 58.83 58.83 0 0 0 4.21-10.4c.68-2.63 2.26-4.65 3.85-6.71a2.24 2.24 0 0 1 2.4-.9 14.1 14.1 0 0 0 5 .16 15.08 15.08 0 0 0 9-5.13 15.28 15.28 0 0 0 3.44-5.91 4.39 4.39 0 0 1 3-3.08c2.36-.88 4.54-2.18 6.93-3 4.33-1.49 8.65-3 13-4.5 1-.34 2.07-.53 3.11-.77 2.68-.61 5.31-1.4 8-2 2.15-.43 4.34-.83 6.46-1.46a30.23 30.23 0 0 1 3.15-.62c4.36-.83 8.71-1.69 13.07-2.49 2.33-.43 4.67-.81 7-1.16a62.71 62.71 0 0 0 10-2.31 43.56 43.56 0 0 0 6.19-2.35 10.54 10.54 0 0 0 6.31-9.4 22.4 22.4 0 0 0-1.38-8.09 24.2 24.2 0 0 0-5.35-8.72 23.71 23.71 0 0 0-4.81-3.89c-4.23-2.73-8.53-5.37-13-7.81a53.07 53.07 0 0 1-6.85-4.58 27.44 27.44 0 0 1-3.19-3.28 33.08 33.08 0 0 1-7.06-12 78.8 78.8 0 0 1-2.67-10.42 41.79 41.79 0 0 1-.89-6.58c0-.57-.61-1.33.5-1.52.27.87.6 1.74.8 2.63a63.24 63.24 0 0 0 6.12 16.2 43.81 43.81 0 0 0 7.87 10.34 115.38 115.38 0 0 0 15.89 12.68c2.21 1.5 4.39 3.06 6.47 4.74a32.33 32.33 0 0 1 8.52 11.2 27.93 27.93 0 0 1 2.56 11.76v1.6a1.22 1.22 0 0 0 1.59 1.18 6 6 0 0 0 1.72-.59c1.63-.82 3.3-1.57 5-2.35.27-.25.7-.16 1-.44a.81.81 0 0 1 1.13.05 51.06 51.06 0 0 1-15 10.78 83.17 83.17 0 0 1-13.47 5.08c-2.87.79-5.79 1.42-8.64 2.26-4.25 1.26-8.6 2.15-12.79 3.59-1.52.53-3.09.87-4.65 1.26-6.9 1.7-13.79 3.46-20.57 5.57a68.48 68.48 0 0 0-16.33 7.11 74.9 74.9 0 0 0-11.64 8.76A56.26 56.26 0 0 0 344.52 382a52.4 52.4 0 0 0-4.44 16.5 33 33 0 0 0 .43 9.15 59.08 59.08 0 0 0 2.32 8.38 23.29 23.29 0 0 0 2.48 4.84 1.35 1.35 0 0 1-1.13.36Zm32.73-1.17a1.73 1.73 0 0 1-1.65 1h-6c-6.58 0-13.16 0-19.74.12a3.2 3.2 0 0 1-2.77-1.25 3 3 0 0 1-.75-2.52 18.51 18.51 0 0 1 3.88-9.17c1.38-1.73 2.64-3.59 4.75-4.56a.68.68 0 0 0 .34-.28 1 1 0 0 0 .15-.62.62.62 0 0 0-.69-.49 4.87 4.87 0 0 0-2.79 1.46 32.25 32.25 0 0 0-4.94 6.59 26.84 26.84 0 0 0-2 5.37c-.27-.24-.51-.35-.58-.53a23.29 23.29 0 0 1-1.35-3.89 50.2 50.2 0 0 1-1.17-7.23 3.93 3.93 0 0 1 1.11-3.11c.91-.92 1.83-1.85 2.77-2.74 2.17-2 4.24-4.18 6.28-6.35a65 65 0 0 1 7.09-6.49 51.07 51.07 0 0 1 5.63-3.93 23.82 23.82 0 0 1 6.6-2.52 2.85 2.85 0 0 1 2.18.46 1.36 1.36 0 0 1 .69 1.12 6.2 6.2 0 0 1-1.73 4.59c-1.41 1.71-2.86 3.38-4.24 5.11a21.59 21.59 0 0 0-1.79 2.65 5.5 5.5 0 0 0-.57 1.73c-.31 1.64.47 3.21 2.65 3a19.37 19.37 0 0 0 2.27-.32 13.13 13.13 0 0 1 3.19-.31 3.53 3.53 0 0 1 1.75.47 2.14 2.14 0 0 1 1 2.92c-.36.83-.89 1.59-1.33 2.4a8.07 8.07 0 0 0-1.27 3.63 6.18 6.18 0 0 0 1.35 4c.28.37.6.7.91 1a7.25 7.25 0 0 1 .74 8.64Z"/><path fill="#f38704" d="M411.49 136c.08-1.82-.23-4-.29-6.09a31.08 31.08 0 0 0-1.25-7 13.35 13.35 0 0 0-1-2.32 2.75 2.75 0 0 0-2.33-1.63 18.67 18.67 0 0 0-3.66-.09c-3.74.25-7.45.7-11.16 1.31a108 108 0 0 0-11 2.13c-3.24.89-6.48 1.79-9 4.32-1.58 1.58-2.67 3.19-2.65 5.57a30.08 30.08 0 0 0 1.3 8.35c1 3.37 2 6.73 2.93 10.12a3.56 3.56 0 0 0 1.62 2.11 3.11 3.11 0 0 0 1.79.25c4.09 0 8.06-.88 12-1.62s8.18-1.9 12.25-2.92c2.23-.57 4.42-1.23 6.62-1.89a4.79 4.79 0 0 0 3.47-4.12 28.61 28.61 0 0 0 .36-6.48Zm-28.29-3.21a14.3 14.3 0 0 1-4.72.74 2.11 2.11 0 0 1-2.15-1.41c-.11-.28-.28-.55-.37-.84-.91-3.14-1.09-2.82 2-3.52a18.19 18.19 0 0 1 5-.47c1.42.09 1.71.35 1.86 1.76 0 .38 0 .77.07 1.15a2.22 2.22 0 0 1-1.69 2.58ZM258.61 307c1.26.29 2.29.55 3.33.76a6.18 6.18 0 0 0 1.36.08.73.73 0 0 0 .65-.58.61.61 0 0 0-.4-.73 12.22 12.22 0 0 0-1.31-.38c-.82-.21-1.64-.37-2.45-.61a.46.46 0 0 1-.27-.73 8.48 8.48 0 0 0 1.36-3.6 14.12 14.12 0 0 1 3.24.76 6.78 6.78 0 0 0 1.33.32.7.7 0 0 0 .69-.5.62.62 0 0 0-.28-.79 2.69 2.69 0 0 0-.8-.43c-.95-.29-1.91-.55-2.86-.83-.55-.17-1.28.07-1.61-.63-.18-.39.5-.76 1.63-.81a24.85 24.85 0 0 0 4.3-.68 6.64 6.64 0 0 1 4.67.53 22.07 22.07 0 0 0 12.09 1.85 17.1 17.1 0 0 1 3.43 0 30 30 0 0 0 3.67.15 13.69 13.69 0 0 1 5 .8c2.6.91 5.21 1.79 7.81 2.7a78.49 78.49 0 0 0 13.3 3.35l4.3.7a8.06 8.06 0 0 0 3.42-.15 2.2 2.2 0 0 0 1.89-2.26 7.5 7.5 0 0 0-.09-1.83c-.88-4.59-1.48-9.22-2-13.85-.51-4.41-.9-8.84-1.12-13.28a29.27 29.27 0 0 1 .47-8.45 3.23 3.23 0 0 0 0-1.82 1.16 1.16 0 0 0-1.26-.75c-.53.13-1.08.71-.89 1.16.83 2-.15 3.9-.07 5.86.1 2.45 0 4.89.29 7.34s.34 4.73.59 7.09q.85 8 2.15 15.92a17.89 17.89 0 0 1 .24 2.05 1 1 0 0 1-1 1.26 11.85 11.85 0 0 1-3.2-.11 101.8 101.8 0 0 1-21.5-5.64c-1.14-.42-2.31-.81-3.47-1.18a15.28 15.28 0 0 0-4.29-.7c-1.3 0-2.61 0-3.91-.11a25.29 25.29 0 0 0-4.35.08 29 29 0 0 1-5.51-.18 9.72 9.72 0 0 1-1.56-.35c-.43-.12-.5-.51-.14-.86.71-.7 1.43-1.38 2.13-2.09a30.9 30.9 0 0 0 7.15-11.4c3.22-9 7.57-17.39 12-25.79a121.84 121.84 0 0 0 9-21.34 59.4 59.4 0 0 1 3-7.93 23.85 23.85 0 0 0 2-13.22 56 56 0 0 0-2.47-12.17 8.25 8.25 0 0 1-.32-1.57c-.05-.38.22-.53.56-.56a.81.81 0 0 1 .22 0c2 .23 2.11.24 2.44 2.28.27 1.66.4 3.34.6 5 .06.52 0 1.11.73 1.26.5.12.87-.39.87-1.33A20.29 20.29 0 0 0 313 204c-.16-.75-.26-1.51-.37-2.27a.46.46 0 0 1 .34-.51.9.9 0 0 1 .21-.08c2.18-.36 2.64-.72 2.8 2.09.07 1.38.07 2.76.16 4.13.05.86.5 1.39 1 1.26.67-.17.67-.75.68-1.29a44 44 0 0 0-.41-5.49c-.1-1-.06-1 .91-1.21 2.33-.49 2.45-.44 2.49 2 0 1.6-.13 3.21-.18 4.82a2.31 2.31 0 0 0 .2 1.55.65.65 0 0 0 1.11.07 2.74 2.74 0 0 0 .44-1.75c0-1.76 0-3.52.05-5.28 0-.46 0-.92-.05-1.38a.74.74 0 0 1 .62-.82c.45-.1.89-.23 1.35-.31.73-.14 1.05.05 1.09.75.07 1.45.09 2.91.14 4.36 0 .69 0 1.38.09 2.07a.87.87 0 0 0 .48.73.56.56 0 0 0 .8-.15 2.1 2.1 0 0 0 .27-1.32c0-1.53-.1-3.06-.14-4.6 0-.53-.05-1.07-.05-1.6 0-.29 0-.59.34-.77s.56.11.65.7c.27 1.82.55 3.64.76 5.46.45 4 1.33 7.85 2.15 11.74.68 3.22 1.33 6.44 2 9.67a45.19 45.19 0 0 1 .65 8.69 41 41 0 0 0 .24 6 13.44 13.44 0 0 0 3.53 7.33 21.13 21.13 0 0 0 2.72 2.46q2.4 1.77 4.94 3.35c2.46 1.55 5 3 7.47 4.51a25.8 25.8 0 0 0 7.62 3.1c.94.22 1 .33 1 1.21.2 5.43.49 10.86.35 16.3a102.29 102.29 0 0 0 .31 11.48v.46c.2 10.41.9 20.82.63 31.24-.06 2.68-.37 5.35-.63 8-.4 4.11-.93 8.21-1.7 12.28a37.51 37.51 0 0 1-2.29 8.39 16.4 16.4 0 0 1-3.29 4.95 12.88 12.88 0 0 1-11.93 3.88 79.07 79.07 0 0 1-11.17-2.61 65.45 65.45 0 0 1-8.25-3.47c-3.25-1.55-6.4-3.28-9.48-5.14-7.47-4.53-15.17-8.64-22.94-12.6-5.12-2.61-10.24-5.2-15.35-7.81-1.09-.56-2.17-1.14-3.23-1.76a65.42 65.42 0 0 0-11.13-5.42 12.85 12.85 0 0 1-2.28-1.08 4.41 4.41 0 0 1-2-4.56 3.18 3.18 0 0 1 1.11-2.2c.61-.48 1.32 0 2 .15a20.8 20.8 0 0 0 4.05.76 7 7 0 0 0 1.37-.1.56.56 0 0 0 .49-.65.76.76 0 0 0-.34-.55 5.07 5.07 0 0 0-1.1-.28c-1.58-.3-3.16-.57-4.73-.91-.86-.18-1-.41-1-1.26.03-1.14.04-2.28.04-3.71Z"/><path fill="#f38704" d="m315.36 396.12-1.94-3c.25-.67.85-.75 1.29-1a13.5 13.5 0 0 0 3.9-3.85 1.38 1.38 0 0 0 .35-1.05.87.87 0 0 0-.38-.53.73.73 0 0 0-.63 0 2.3 2.3 0 0 0-.62.66 12.5 12.5 0 0 1-5.33 4.35c-1-.89-2-1.82-3-2.76a.74.74 0 0 1-.07-1.17 40.29 40.29 0 0 1 4.7-5.33 5.64 5.64 0 0 0 .66-.63c.26-.31.41-.67.05-1a.77.77 0 0 0-1-.05 18.27 18.27 0 0 0-1.6 1.31 50.94 50.94 0 0 0-4.47 5.1 8.58 8.58 0 0 1-2.1-1.68c-.63-.55-1.24-1.14-1.83-1.74a.53.53 0 0 1 .11-.8c.63-.56 1.3-1.08 1.93-1.63a24.38 24.38 0 0 0 3.28-3.53 3.86 3.86 0 0 0 .49-.77.69.69 0 0 0-.16-.83.62.62 0 0 0-.84 0 15.83 15.83 0 0 0-1.27 1.32 24.74 24.74 0 0 1-4.58 4.15c-.64.45-.82.43-1.38-.11-.93-.91-1.86-1.82-2.77-2.74s-.88-.92.19-1.71a28.73 28.73 0 0 0 4.4-4.35 1.9 1.9 0 0 0 .6-1.2.73.73 0 0 0-.79-.62 2.2 2.2 0 0 0-1 .86 25.61 25.61 0 0 1-5.29 4.73c-.14 0-.32 0-.41-.09-3.37-3.09-3.37-2-.59-5.81a22.26 22.26 0 0 1 1.89-2 5 5 0 0 0 .74-.86.8.8 0 0 0 0-.64.64.64 0 0 0-.79-.29 2.63 2.63 0 0 0-.77.46 16.47 16.47 0 0 0-2.87 3c-.5.67-1 1.32-1.61 2.08a5.53 5.53 0 0 1-2.09-2c-.22-.28 0-.59.15-.84a50.36 50.36 0 0 1 4.28-5.39c.31-.34.63-.66.92-1a.73.73 0 0 0-1-1 9.93 9.93 0 0 0-1.35 1.24c-1.21 1.39-2.37 2.81-3.56 4.21l-.81 1c-.18 0-.28 0-.32-.08-4.21-4.31-4.07-2.63-.17-6.73.84-.88 1.85-1.6 2.78-2.4.23-.2.47-.39.69-.6s.58-.73.28-1.21-.72-.37-1.21 0a45.26 45.26 0 0 0-5.06 4.32c-.59.59-1.21 1.14-1.92 1.8a31.74 31.74 0 0 1-2.89-3.3c0-.69.61-.89 1-1.2a32.68 32.68 0 0 0 4.79-5.25 1.38 1.38 0 0 0 .29-.61.72.72 0 0 0-.36-.77.51.51 0 0 0-.64 0c-.49.47-1 1-1.42 1.48a24.82 24.82 0 0 1-3.69 3.77l-.74.54a.69.69 0 0 1-1-.07c-.74-.86-1.48-1.74-2.24-2.64a28.65 28.65 0 0 1 4.41-5.38c.27-.27.58-.5.86-.76.6-.56.72-1 .35-1.34s-.79-.29-1.44.2a20.09 20.09 0 0 0-3 2.87c-.6.7-1.18 1.42-1.76 2.12s-.81.76-1.41 0c-1-1.17-1.92-2.37-2.91-3.6a60.35 60.35 0 0 1 4.84-5.31 2.5 2.5 0 0 0 .82-1.08.53.53 0 0 0-.21-.6c-.17-.12-.45-.25-.6-.19a3 3 0 0 0-.94.62c-1.16 1.12-2.28 2.27-3.42 3.4a6.92 6.92 0 0 1-1.81 1.64 40.56 40.56 0 0 1-2.8-3.53c-.32-.46-.06-.87.27-1.22 1.34-1.36 2.69-2.72 4-4.09.43-.43.86-.87 1.25-1.34a.61.61 0 0 0 0-.83.68.68 0 0 0-.83-.2 4 4 0 0 0-.9.69c-1.5 1.42-3 2.86-4.48 4.28-.73.7-.92.72-1.47 0q-2.37-3.09-4.7-6.23a.61.61 0 0 1 .36-1.05c.67-.17 1.34-.31 2-.44.3-.06.61 0 .91-.12a2.91 2.91 0 0 0 2.48-2.64 7.63 7.63 0 0 0-.1-2.52 14.08 14.08 0 0 1-.3-1.8c-.1-1.28.33-1.58 1.43-1.05a12 12 0 0 1 1 .54c8.06 4.73 16.59 8.56 24.84 12.93 6.15 3.26 12.31 6.5 18.28 10.1a128 128 0 0 0 14.61 7.71 59 59 0 0 0 8.66 3c.67.17 1.34.34 2 .54a.47.47 0 0 1 .3.55c-.07.29-.21.57-.31.86-.7 2.1-1.48 4.18-2.1 6.31a77.87 77.87 0 0 1-4 10 12.67 12.67 0 0 1-2.79 3.9 20.24 20.24 0 0 0-3.78 5.16 19.73 19.73 0 0 1-8.81 8.38ZM5.28 309.28v-1.38a6.69 6.69 0 0 1 3.78-5.9 21.62 21.62 0 0 1 4.94-1.94c3.11-.79 6.17-1.79 9.29-2.49 5.23-1.17 10.39-2.61 15.67-3.5 1.22-.21 2.43-.26 3.66-.35a5.36 5.36 0 0 1 4.86 2.51 20.72 20.72 0 0 1 2.92 6.44 77.41 77.41 0 0 1 2.26 10.53c.5 2.92.46 4.91-3.69 6.95A79.88 79.88 0 0 1 34 325.33c-4.29 1.15-8.67 1.9-13 2.79a34.3 34.3 0 0 1-5.25.59 6.27 6.27 0 0 1-5.36-2.54 19.37 19.37 0 0 1-3.67-8.56c-.3-1.42-.61-2.83-1-4.24a16.19 16.19 0 0 1-.44-4.09ZM380 184.38c0-.5-.1-.87-.11-1.25 0-1.15 0-1.26 1.24-1.48 4.51-.83 9-1.63 13.55-2.46 1.65-.31 3.3-.64 4.94-1 7.5-1.8 15-3.55 22.41-5.82 1.6-.49 3.27-.75 4.91-1.14s3.41-.84 5.1-1.29a17.27 17.27 0 0 1 3.65-.38 2.55 2.55 0 0 1 2.62 1.5 19 19 0 0 1 2.16 8.36c0 2.33-1 3.41-3.41 4.16-.27-.39-.05-.72.1-1.06.22-.49.42-1 .6-1.49s.12-.84-.25-1-.72.12-.88.48c-.4.91-.82 1.81-1.13 2.75a2 2 0 0 1-1.77 1.56c-.37.05-.74.21-1.11.27a.88.88 0 0 1-.62-.09c-.3-.25-.06-.54.07-.8.4-.83.82-1.64 1.2-2.48a6.38 6.38 0 0 0 .46-1.29c.08-.35.12-.79-.36-.94s-.57.19-.71.45c-.32.61-.61 1.24-.9 1.86-.35.77-.71 1.53-1 2.31a3.12 3.12 0 0 1-2.63 2.25c-.36 0-.7.3-1.12.08-.31-.39.06-.68.21-1 1-2 2.12-4.06 3.17-6.1a3.53 3.53 0 0 0 .35-1.07c0-.18-.15-.42-.3-.57s-.43 0-.58.1a7.1 7.1 0 0 0-1.24 1.92q-1.31 2.68-2.64 5.35a18.81 18.81 0 0 1-1 1.79 1.38 1.38 0 0 1-.68.56c-1 .33-2 .59-3 .87-.39-.47 0-.76.15-1 1-1.69 2.13-3.36 3.2-5a1.27 1.27 0 0 0 .29-1.07.59.59 0 0 0-.23-.37.5.5 0 0 0-.43 0 4.54 4.54 0 0 0-1.45 1.74c-1.08 1.76-2.19 3.5-3.2 5.3a2.74 2.74 0 0 1-1.92 1.48 6.77 6.77 0 0 1-3.22.41 7.87 7.87 0 0 1 1.22-2.42c1.66-2.67 3.33-5.32 5-8 .24-.38.55-.75.37-1.26a1.27 1.27 0 0 0-.27-.35.25.25 0 0 0-.41 0 12.2 12.2 0 0 0-1.32 1.57 105.07 105.07 0 0 0-5.94 10.07 2.24 2.24 0 0 1-2 1.52 24.38 24.38 0 0 0-3.08.64c-.27-.6.1-1 .31-1.31 1.16-2 2.36-3.93 3.54-5.9.75-1.24 1.5-2.49 2.22-3.75a2.45 2.45 0 0 0 .25-.86.5.5 0 0 0-.23-.35.64.64 0 0 0-.43-.05c-.43.1-.55.5-.76.81a122.71 122.71 0 0 0-6.35 10.63 2.46 2.46 0 0 1-1.87 1.46 35 35 0 0 1-4.25.73c-.18-.51.09-.79.3-1.09 1-1.44 2-2.87 3-4.32a12.5 12.5 0 0 0 .92-1.58.5.5 0 0 0-.76-.61c-.52.57-1 1.13-1.49 1.74a36.54 36.54 0 0 0-3.21 5 2.75 2.75 0 0 1-2.28 1.62 18.37 18.37 0 0 1-3.4.3c-.08-.85.48-1.32.84-1.88 1.59-2.43 3.2-4.85 4.78-7.28a2.88 2.88 0 0 0 .72-1.65.62.62 0 0 0-.2-.39.39.39 0 0 0-.6 0c-.57.71-1.16 1.42-1.66 2.18-1.76 2.69-3.54 5.36-5.19 8.11a3.31 3.31 0 0 1-3.17 1.84h-1.83a.45.45 0 0 1-.32-.68c1.19-1.69 2.4-3.36 3.6-5a3.69 3.69 0 0 0 1-1.78.78.78 0 0 0-.22-.61.62.62 0 0 0-.6.08 13.27 13.27 0 0 0-1 1.21 65.4 65.4 0 0 0-4.42 6.43 2.23 2.23 0 0 1-2 1.24c-1.12 0-1.61-.38-1.47-1.46a3.41 3.41 0 0 1 .46-1.27c.71-1.18 1.46-2.34 2.2-3.5.33-.51.7-1 1-1.54a.62.62 0 1 0-1.05-.66c-.68.92-1.32 1.88-1.95 2.83-.26.38-.45.8-.71 1.18a.32.32 0 0 1-.55 0c-.25-1.19-.49-2.39-.62-3.6a2.84 2.84 0 0 1 .44-1.28c.23-.48.55-.92.77-1.4a.73.73 0 0 0-.15-.85c-.27-.22-.56-.09-.84.07a3.31 3.31 0 0 1-.83.02ZM113.9 389.09c-1.29.58-2.62 1.11-3.9 1.75-2 1-4.08 2.11-6.09 3.21a1.49 1.49 0 0 1-1.7-.05 25.44 25.44 0 0 1-6.54-5.73A119.76 119.76 0 0 1 87 375.9a17.56 17.56 0 0 1-1.88-4.42c-.29-1.08-.28-1.16.7-1.53a59.5 59.5 0 0 0 8.51-4l.4-.22c.69-.35.89-.29 1.27.39.89 1.61 1.73 3.24 2.66 4.82a80.33 80.33 0 0 0 5.47 8.22 39.86 39.86 0 0 0 9.26 9.16 2.67 2.67 0 0 1 .49.46c0 .04-.01.14.02.31ZM20.92 359.26a6.66 6.66 0 0 1 1.46-4.26 17.44 17.44 0 0 1 3.21-3.27 5 5 0 0 1 5.95-.57 30.74 30.74 0 0 1 8.32 6.77 1.32 1.32 0 0 1 .22 1.47 62 62 0 0 1-6.91 13.93 20.15 20.15 0 0 1-3 3.47c-.48.45-.76.42-1.08-.09a119.28 119.28 0 0 1-6.36-10.88 15.29 15.29 0 0 1-1.81-6.57Z"/><path fill="#f18604" d="M283 282.76a.86.86 0 0 1 0 .23 31.59 31.59 0 0 1-7.39 11.37c-.62-.21-.45-.65-.43-1 .1-2.29.27-4.57.32-6.86 0-2-.08-4-.1-6a17.76 17.76 0 0 1 .1-2.06c.08-.83.36-1 1.2-.93.44.05.72.25.73.71v3.43a10 10 0 0 0 .19 1.82.73.73 0 0 0 .86.57.67.67 0 0 0 .59-.61c.06-.76.07-1.53.06-2.29 0-1-.09-2-.11-3 0-.46.29-.67.73-.69s.81 0 .88.51c.12.83.19 1.67.27 2.51 0 .38 0 .76.09 1.14.13.86.41.95 1.46.51.48-.01.74.1.55.64Z"/><path fill="#f38704" d="M203.41 134.39a9.3 9.3 0 0 0-1.92-2.27 23.53 23.53 0 0 0-11.41-5.56 17.55 17.55 0 0 0-17.55 8 35 35 0 0 0-4.22 10.12 13.86 13.86 0 0 0 .44 7.91 20.29 20.29 0 0 0 3.48 6.16c1.47 1.77 3.06 3.43 4.66 5.08a8.29 8.29 0 0 0 4.11 2.37 14.17 14.17 0 0 1 2.78.93c.33-1.21.6-2.25.88-3.28a28.56 28.56 0 0 0 .92-5.89c0-.68-.08-1.18-.81-1.44a8.76 8.76 0 0 1-1.43-.73 7.7 7.7 0 0 1-3.16-3.54 5 5 0 0 1-.52-3.12 3 3 0 0 1 5.06-1.81 7.08 7.08 0 0 1 2.07 3.26 13.84 13.84 0 0 1 .63 3.84c0 .83.3 1.07 1.08 1.19s1.22 0 1.55-.92a22.83 22.83 0 0 1 1.83-3.95 7.05 7.05 0 0 1 2.14-2.37 2 2 0 0 1 3.33 1.56 4.49 4.49 0 0 1-.17 1.82 7.5 7.5 0 0 1-4 4.78 16 16 0 0 1-1.49.6 1 1 0 0 0-.65.87 24 24 0 0 0 .33 8.89 1.55 1.55 0 0 0 2.09 1.14c.65-.22 1.26-.56 1.92-.75a11.15 11.15 0 0 0 5.92-4.48 24 24 0 0 0 2.1-3.28 31.15 31.15 0 0 0 3.36-10.67 22 22 0 0 0-3.35-14.46Zm-15.3-4.89a18.44 18.44 0 0 0-4.21 1 18.81 18.81 0 0 0-7 4.24 10.16 10.16 0 0 0-3.33 6.09c0 .27 0 .68-.48.55s-.36-.44-.34-.65a9.26 9.26 0 0 1 2-4.88 19.31 19.31 0 0 1 10.61-6.72 6.85 6.85 0 0 1 2.69-.43c.21 0 .45.05.45.36a.44.44 0 0 1-.39.44Z"/><path fill="#f28704" d="M461.77 187.44c.06-1.51-.68-2.91-.58-4.42-.27-.86.68-1 .92-1.55 1.63-4.42 3-8.92 4.27-13.45-1.61 3.7-2.35 7.73-4.3 11.3-.36.32-.73.59-1.24.36a43.25 43.25 0 0 1-.79-7.7c-.19-2.43-.16-4.87-.54-7.28 2.29-1.53 1.87-4.34 3.1-6.36a26.5 26.5 0 0 0-2.08 4.49c-.2.46-.09 1.31-1 1.07a14.47 14.47 0 0 1-.25-4.78 2.86 2.86 0 0 1 1.93-2.62 23.81 23.81 0 0 1 6.66-1.59c2-.11 3.35.65 3.5 3.27.05.84 0 1.68 0 2.52a59.83 59.83 0 0 0 .29 8 31.22 31.22 0 0 1 .16 3.21 106 106 0 0 0 .79 11 14.86 14.86 0 0 1-.51 7 3 3 0 0 1-2.24 2.06c-.81.2-1.64.34-2.47.47a4.7 4.7 0 0 1-1-.09 62.64 62.64 0 0 1 3.11-8.19c.33-.77.64-1.55.9-2.35a.71.71 0 0 0-.25-.58.55.55 0 0 0-.81.09 8.19 8.19 0 0 0-.68 1.18 69 69 0 0 0-3.53 8.71c-.09.27-.08.6-.4.78-.71.08-1-.65-1.52-.88-.37-.24-.3-.69-.48-1a.25.25 0 0 0 0-.33c2.3-4.37 2.94-9.31 4.64-13.89a85 85 0 0 0-2.89 8.26 17.15 17.15 0 0 1-1.3 3.64c-.86 1.39-1.11.32-1.41-.35Z"/><path fill="#f38704" d="M481.54 252a18.38 18.38 0 0 1-13.78-6.13 22.26 22.26 0 0 1-5.71-10.58 26.69 26.69 0 0 1-.5-8.66 21.27 21.27 0 0 1 4.4-10.92 16.65 16.65 0 0 1 10.89-6.63c6.69-1 12.16 1.38 16.68 6.2a23.47 23.47 0 0 1 6 12.92 22.67 22.67 0 0 1-3 15 17.33 17.33 0 0 1-6.61 6.55 15.49 15.49 0 0 1-8.37 2.25Z"/><path d="M324.06 149.28a.88.88 0 0 1-.3-.07.7.7 0 0 0 .3.07ZM323.58 149.08a.77.77 0 0 1-.17-.19 1.54 1.54 0 0 0 .17.19ZM336 203.49l-.21.14a.25.25 0 0 0 .21-.13ZM343.64 241.7l.33.47-.33-.47ZM341.63 237.12l-.25-.64c-.02.25.16.43.25.64ZM342.1 238.5l-.27-.58c0 .23.17.38.27.58Z"/><path fill="#0f0909" d="M305.25 163.94a1.52 1.52 0 0 0-2.07-.77 1 1 0 0 0-1 .89 2 2 0 0 0-.42 1.88 1.6 1.6 0 0 0 2 1.32 1.55 1.55 0 0 0 1.18-.91 1.78 1.78 0 0 0 .31-2.41Zm-1.11.94a4.42 4.42 0 0 1-.58.94c-.88-.57-.9-.59-.65-1.65l-.05-.07h.07l.26-.35c.92.25 1.14.48.95 1.13Z"/><path fill="#020101" d="M478.71 130.14a101.44 101.44 0 0 0-2.29-12.62 20.23 20.23 0 0 0-2.53-5.87 7.45 7.45 0 0 0-6.74-3.61 12.44 12.44 0 0 0-1.37.08c-5.93.71-11.76 1.9-17.61 3-2.32.46-4.6 1.1-6.89 1.71-3.31.88-6.61 1.83-9.85 2.95a21.19 21.19 0 0 0-2.93 1.29 6 6 0 0 0-3.28 4.68 12.25 12.25 0 0 0 .2 4.1c1.07 5.93 2.48 11.79 3.89 17.65a14 14 0 0 0 1.84 3.93 3.63 3.63 0 0 0 2 1.48 14.74 14.74 0 0 0 5.18.55c3.07-.39 6.79-.83 10.5-1.36 3.25-.46 6.48-1.09 9.74-1.5a75.24 75.24 0 0 0 14.73-3.26c4.2-1.41 6.09-4.29 6-8.23a44.09 44.09 0 0 0-.59-4.97Zm-4.85 11.27a28.93 28.93 0 0 1-6.12 1.89c-6.13 1.33-12.32 2.3-18.53 3.18-3.41.48-6.83.88-10.25 1.31a13.45 13.45 0 0 1-4.34-.08 3.68 3.68 0 0 1-2.46-1.54 8 8 0 0 1-1.32-2.65c-.71-3-1.44-6-2.12-8.93-.55-2.46-1-5-1.57-7.39a22 22 0 0 1-.46-4.55 4.2 4.2 0 0 1 2.66-4.16 32.82 32.82 0 0 1 5.32-2.09c2.2-.65 4.39-1.33 6.6-1.94 1.55-.42 3.11-.77 4.68-1.11 4.63-1 9.25-2.06 13.95-2.66 2.2-.28 4.36-.88 6.6-1a19.13 19.13 0 0 1 2.51.17 5 5 0 0 1 3.19 2.14 17.09 17.09 0 0 1 2.72 5.77c.84 3.5 1.41 7 1.94 10.61.22 1.51.48 3 .67 4.54a21 21 0 0 1 .16 2.75 6 6 0 0 1-3.83 5.74Z"/><path fill="#010000" d="M204.71 133.15a9.92 9.92 0 0 0-2.1-2.42c-3.71-3.08-7.77-5.45-12.68-6-7.67-.85-13.84 1.87-18.33 8.11a31.49 31.49 0 0 0-4.81 10.61 15.15 15.15 0 0 0-.09 8.39 21.67 21.67 0 0 0 3.42 7 58.55 58.55 0 0 0 5.61 6.07 11.23 11.23 0 0 0 4.9 2.84c.34.1.78 0 1 .42a1.93 1.93 0 0 1-.1.43c-.67 1.47-.61 1.86.47 2.75.18.14.42.21.59.36a1.42 1.42 0 0 1-.26 2.41 7.67 7.67 0 0 0-.8.43 1.56 1.56 0 0 0 .27 2.78 6.3 6.3 0 0 0 3.12.56c1.52-.13 3.06 0 4.59 0a3.45 3.45 0 0 1 1.95.57.48.48 0 0 1 .19.36.45.45 0 0 1-.18.36 4.83 4.83 0 0 1-2.65.62c-2.22 0-4.44 0-6.67-.05a11.06 11.06 0 0 0-1.82.12.73.73 0 0 0-.56.64.76.76 0 0 0 .43.75 2.08 2.08 0 0 0 1.34.22c1.53-.15 2.68.17 3 2a7.09 7.09 0 0 0 .91 1.8A9.69 9.69 0 0 1 180 187a29 29 0 0 1-5.74-.17c-.91-.12-1.83-.18-2.74-.21a5.57 5.57 0 0 0-4.32 1.79 14.23 14.23 0 0 0-3.22 5.24 22.36 22.36 0 0 0-.89 2.85 3.08 3.08 0 0 1-1.35 2 8.46 8.46 0 0 0-2.82 8.66.78.78 0 0 0 .86.59.82.82 0 0 0 .78-.72c.1-.44.09-.91.15-1.36.11-.95.18-1 1.07-1.2A26.92 26.92 0 0 1 167 204c.07.35.13.57.15.78s0 .62 0 .92c.1.69.52 1.15 1 1a1 1 0 0 0 .75-1 21.16 21.16 0 0 0-.08-2.76c-.3-2.24-1.16-4.13-3.48-5a.78.78 0 0 1-.55-1.07c.29-1 .57-1.91.89-2.85a11.76 11.76 0 0 1 2.75-4.45 3.6 3.6 0 0 1 2.86-1.22c1.38.08 2.75.16 4.12.29a18.23 18.23 0 0 0 9.24-1.15 3.65 3.65 0 0 0 2.21-1.86 2.1 2.1 0 0 1 1-.95 4 4 0 0 0 1-.89c.48-.68.8-1.48 1.29-2.16s1.7-.56 2.45-1.14a2 2 0 0 0 .8-2.58c-.09-.21-.28-.38-.33-.6-.3-1.1-.62-2.14.61-3 .89-.65.78-1.15 0-2.38-.67-1.06-.51-1.88.55-2.44a15.61 15.61 0 0 1 2.1-.9 13.75 13.75 0 0 0 7.15-5.85 30.25 30.25 0 0 0 5.14-17.74 23.66 23.66 0 0 0-3.91-11.85Zm-17.58 50.07A.71.71 0 0 1 186 183a3.07 3.07 0 0 1-.17-.42c-.09-.27-.17-.55-.26-.88a4.89 4.89 0 0 1 2.43 0 2 2 0 0 1-.87 1.52Zm-3.23-52.72a18.81 18.81 0 0 0-7 4.24 10.16 10.16 0 0 0-3.33 6.09c0 .27 0 .68-.48.55s-.36-.44-.34-.65a9.26 9.26 0 0 1 2-4.88 19.31 19.31 0 0 1 10.61-6.72 6.85 6.85 0 0 1 2.69-.43c.21 0 .45.05.45.36a.44.44 0 0 1-.43.44 18.44 18.44 0 0 0-4.17 1Zm6.74 45.65c-1 0-1.95-.1-2.88-.15h-2.32c-.2 0-.26-.08-.29-.25a.36.36 0 0 1 .37-.44c1.66 0 3.32 0 5-.06a.3.3 0 0 1 .21.07c.1.09.24.21.25.33s-.09.5-.34.5Zm0-2.58a29.59 29.59 0 0 1-5.24.05c-.43 0-.57-.46-.59-.86a.63.63 0 0 1 .67-.73c.69 0 1.37.1 2.05.15 1.06.11 2.12.21 3.17.36a.69.69 0 0 1 .46.45.54.54 0 0 1-.56.58Zm1-3.56c-.11.44-.2.92-.83.84-.9-.11-1.8-.24-2.7-.36l-2.72-.15a1 1 0 0 1-.77-.39c-.15-.19-.08-.72.13-.79a1.66 1.66 0 0 1 .42-.12c2 0 3.94.09 5.91.17.38.07.67.31.54.79Z"/><path fill="#040303" d="M85.08 157.25c1.69.32 3.66.62 5.6 1.05 5.45 1.2 10.9 2.44 16.34 3.67 2.46.55 4.93 1.07 7.39 1.65a19.36 19.36 0 0 1 4.94 1.79 5.79 5.79 0 0 1 1.11.8.68.68 0 0 1 .12.84.89.89 0 0 1-.93.52.6.6 0 0 1-.21-.08c-2.88-1.54-6.06-2.06-9.19-2.75-5.38-1.2-10.74-2.45-16.12-3.62a79.71 79.71 0 0 0-9.47-1.75c-.84-.08-1.28-.46-1.31-1s.59-1.14 1.73-1.12ZM335.41 87.31a2.33 2.33 0 0 1-.36 1.5c-.51.76-1 1.53-1.51 2.3-3 4.51-6 9-9 13.55a53.78 53.78 0 0 0-5.7 11.18c-.36 1-.86 1.38-1.38 1.1s-.65-.72-.31-1.81a42.1 42.1 0 0 1 3.29-7.54c1.81-3.27 3.83-6.42 5.91-9.53 2.34-3.49 4.69-7 7-10.44a3.92 3.92 0 0 1 .55-.72.81.81 0 0 1 1-.15.82.82 0 0 1 .51.56Z"/><path fill="#040404" d="M319.74 88.76c.44 0 .92.36.9.69a2.87 2.87 0 0 1-.22 1.09c-.32.69-.72 1.35-1.08 2a79.27 79.27 0 0 0-7.61 18.82c-.29 1.18-.52 2.38-.78 3.57-.11.52-.2 1-.35 1.56a.85.85 0 0 1-1 .67.9.9 0 0 1-.66-1.06c.26-1.73.49-3.48.89-5.18a76.1 76.1 0 0 1 8.51-20.65 8.51 8.51 0 0 1 .94-1.29 1.16 1.16 0 0 1 .46-.22ZM99.61 171.84a84.67 84.67 0 0 1 12.84 0 5.89 5.89 0 0 1 2.23.5.86.86 0 0 1 .53.91.91.91 0 0 1-1 .76c-7.17-.86-14.36-.06-21.54-.09-1.91 0-3.82-.1-5.73-.17a2 2 0 0 1-1.3-.35.9.9 0 0 1-.36-.8.72.72 0 0 1 .55-.66 9.37 9.37 0 0 1 1.59-.1Z"/><path fill="#070404" d="M219.15 211.59c-.13-.11-.37-.23-.44-.41a.77.77 0 0 1 0-.63 4.52 4.52 0 0 1 1.81-1.37 79.15 79.15 0 0 1 9.72-4.6c4.33-1.71 8.8-3 13.22-4.45l.21-.08c.47-.1.92-.12 1.17.41a.91.91 0 0 1-.65 1.24c-1.44.5-2.89 1-4.35 1.43a104.13 104.13 0 0 0-15.32 5.87c-1.44.7-2.84 1.47-4.26 2.23a2 2 0 0 1-1.11.36Z"/><path fill="#060505" d="M99.25 148.79a8.35 8.35 0 0 1 .93.31c.69.31 1.39.63 2.06 1q7.16 3.82 13.94 8.28a6.75 6.75 0 0 1 1.77 1.42 1 1 0 0 1 0 1.25.84.84 0 0 1-1.22.06c-5.25-3.69-10.91-6.66-16.48-9.81-.6-.33-1.19-.67-1.76-1a.74.74 0 0 1-.25-.82c.1-.48.45-.63 1.01-.69Z"/><path fill="#090606" d="M244.06 230.6c-.06.5-.36.81-.75.78a12.5 12.5 0 0 1-2-.43c-3.44-1-6.88-1.95-10.4-2.65a44.75 44.75 0 0 0-8.63-.9 12.16 12.16 0 0 1-1.81-.14.66.66 0 0 1-.52-.66.65.65 0 0 1 .47-.7 5.47 5.47 0 0 1 1.34-.17 43.69 43.69 0 0 1 11.56 1.3c3.1.77 6.18 1.63 9.27 2.47a5 5 0 0 1 1.22.57.46.46 0 0 1 .25.53ZM223.21 241.88a3.67 3.67 0 0 1 .39.12 69.24 69.24 0 0 1 17 8 4.21 4.21 0 0 1 1.38 1.17.82.82 0 0 1 0 .88.74.74 0 0 1-1 .28 12.91 12.91 0 0 1-1.35-.87 79.59 79.59 0 0 0-15-7.39 9 9 0 0 0-1.55-.38 1.51 1.51 0 0 1-.95-.58c-.18-.24-.37-.5-.16-.82s.39-.52 1.24-.41Z"/><path fill="#070606" d="M301.67 113.8a28.91 28.91 0 0 1 1-8.17 10.1 10.1 0 0 1 1.39-3.13.88.88 0 0 1 1.18-.37 1 1 0 0 1 .42 1.18c-.09.29-.17.59-.28.87a27.84 27.84 0 0 0-1.82 11v2.06a2.49 2.49 0 0 1-.13.9.83.83 0 0 1-.91.53.74.74 0 0 1-.67-.55c-.11-.91-.16-1.82-.21-2.74.01-.51.03-1.05.03-1.58Z"/><path fill="#0b0707" d="M150.75 130.71c1.55.41 3.47.91 5.38 1.45 2.57.74 5.14 1.51 7.7 2.27a3 3 0 0 1 .85.33.78.78 0 0 1 .27.59c0 .3-.17.64-.53.64a6.42 6.42 0 0 1-1.58-.15c-1.7-.43-3.39-.94-5.09-1.4l-7.75-2.07c-.71-.19-1.08-.6-.94-1s.69-.79 1.69-.66Z"/><path fill="#0b0a0a" d="M214.26 110.68a1.44 1.44 0 0 1-.32 1.06c-.91 1.49-1.86 3-2.75 4.47-1 1.77-2 3.58-3 5.35a23.07 23.07 0 0 1-1.54 2.26.71.71 0 0 1-1 .13.69.69 0 0 1-.17-1c2.37-3.72 4.07-7.83 6.6-11.46.34-.49.58-1.07 1.17-1.36.31-.13.99.15 1.01.55Z"/><path fill="#0c0909" d="M164 164.84a1.93 1.93 0 0 1-.23.64 6.12 6.12 0 0 1-.81.8c-2.82 2.45-5.64 4.91-8.47 7.34a3.83 3.83 0 0 1-1.71 1.1.75.75 0 0 1-.79-.31.78.78 0 0 1 0-.65 3.31 3.31 0 0 1 .71-.87q5-4.21 9.95-8.41a.93.93 0 0 1 .38-.24 1 1 0 0 1 .65 0c.15.13.22.4.32.6Z"/><path fill="#0e0c0c" d="M216.34 140.8c-.5 0-1-.5-.85-.77a2.43 2.43 0 0 1 .31-.6 86.57 86.57 0 0 1 8.07-8.73 4.8 4.8 0 0 1 .72-.56.67.67 0 0 1 .83.12.77.77 0 0 1 .23.82 3.25 3.25 0 0 1-1.11 1.42c-1.81 1.76-3.64 3.49-5.28 5.41-.74.86-1.51 1.72-2.3 2.54a1.83 1.83 0 0 1-.62.35Z"/><path fill="#0e0a0a" d="M224.9 153.48c.48 0 .84.11 1 .54a.8.8 0 0 1-.58 1.07c-1.19.28-2.39.48-3.59.7-1.88.34-3.77.61-5.64 1a7.43 7.43 0 0 0-3 1c-.39.28-.72 0-1-.23a.69.69 0 0 1 0-1.16 11.17 11.17 0 0 1 1.67-.71A51.88 51.88 0 0 1 222 154Z"/><path fill="#0c0b0b" d="M191 114.43c.12-2.51.4-5 .75-7.49.12-.9.09-1.82.16-2.73a.73.73 0 0 1 .68-.77.88.88 0 0 1 .87.6 2.65 2.65 0 0 1 .22 1.56c-.58 3.77-.84 7.56-1.18 11.35v.22c-.11.56-.48.92-.88.84s-.57-.45-.61-.84 0-.61 0-.91Z"/><path fill="#0e0b0b" d="M206.37 169.68a1.5 1.5 0 0 1 .44.07 5 5 0 0 1 .76.51 39.81 39.81 0 0 0 5.71 3.83 18.64 18.64 0 0 1 3.22 2.19 6.84 6.84 0 0 1 .92 1 .65.65 0 0 1 0 .84.84.84 0 0 1-.82.29 1.2 1.2 0 0 1-.61-.29 36.69 36.69 0 0 0-5.28-3.64c-1.52-1-3-2.14-4.46-3.23a2 2 0 0 1-.43-.52c-.24-.29.18-1.05.55-1.05Z"/><path fill="#0c0a0a" d="M165.55 110.24a1 1 0 0 1 .82.32c.25.28.49.58.73.87 2.24 2.79 4.1 5.86 6.46 8.56a1.18 1.18 0 0 1 .23.39.64.64 0 0 1-.2.8.69.69 0 0 1-.85.06 3.79 3.79 0 0 1-.67-.6c-.56-.62-1.13-1.24-1.64-1.9-1.66-2.17-3.31-4.36-5-6.55a5.89 5.89 0 0 1-.59-1 .8.8 0 0 1 .71-.95Z"/><path fill="#0e0a0a" d="M150.6 151.65a53.92 53.92 0 0 1 8.21.86c.3.05.63.06.8.35a1 1 0 0 1 .16.62c0 .19-.24.46-.4.48a7 7 0 0 1-1.59 0 60 60 0 0 0-9.84-.52 1.63 1.63 0 0 1-.67-.1 1 1 0 0 1-.47-.46.71.71 0 0 1 .2-.88 1.55 1.55 0 0 1 1.05-.39c.87.03 1.71.04 2.55.04Z"/><path fill="#e07b04" d="m283 282.76-.53-.57c0-1.3-.06-2.6-.08-3.9a.66.66 0 0 1 .68-.74 10.84 10.84 0 0 1 1.14 0 .55.55 0 0 1 .55.77c-.2.66-.42 1.31-.67 1.95a9.78 9.78 0 0 1-1.09 2.49Z"/><path fill="#ec8304" d="M185.61 167.34c-.06-.31-.15-.47-.11-.59a38.47 38.47 0 0 0 1.86-8.69c.06-.65.42-.85 1.14-.76.42.06.72.26.73.71s0 .91-.07 1.37a24.84 24.84 0 0 0 .35 6.83 3.94 3.94 0 0 1 .08.68c0 .45-.19.76-.66.73-1.13-.07-2.25-.19-3.32-.28Z"/><path fill="#eb8304" d="M185.72 154.33a.48.48 0 0 1-.67.39 6.32 6.32 0 0 1-3.51-3.74 2.71 2.71 0 0 1 0-2 1.18 1.18 0 0 1 1.53-.62 3 3 0 0 1 1.47 1.39 10 10 0 0 1 1.18 4.58Z"/><path fill="#df7c04" d="M192.1 154.92a8.77 8.77 0 0 1 2.63-4.92.69.69 0 0 1 .62-.09.68.68 0 0 1 .26.55 4.87 4.87 0 0 1-3.51 4.46Z"/><path fill="#030202" d="M196.3 328.48a.76.76 0 0 1-.67.53 1.92 1.92 0 0 1-.66-.15 17.19 17.19 0 0 0-10.82.07 21.41 21.41 0 0 0-5.79 2.71c-4.78 3.17-9.55 6.36-14.36 9.48-10.08 6.52-20 13.36-29.8 20.23-2.51 1.75-4.93 3.62-7.4 5.44-.74.54-1.47 1.09-2.24 1.59-.59.38-1.15.3-1.41-.16s0-.88.37-1.18 1-.71 1.49-1.08c9.88-7.47 20.15-14.41 30.46-21.29 7.24-4.84 14.55-9.59 21.82-14.41a24 24 0 0 1 9.3-3.7 17.78 17.78 0 0 1 7.51.32 4.4 4.4 0 0 1 1.88.82.73.73 0 0 1 .32.78Z"/><path fill="#010101" d="M39.71 255.88a7.28 7.28 0 0 0-.26-2.4c-.44-2-.91-4-1.3-6-.29-1.5-.48-3-.7-4.53a1.6 1.6 0 0 1 1-1.84 6.57 6.57 0 0 1 1-.51 40.7 40.7 0 0 1 6.29-1.25c1.05-.1 1.41.26 1.78 1.35a53.33 53.33 0 0 1 1.37 7c.35 1.72.64 3.45 1 5.18a.6.6 0 0 0 .85.49c.73-.21 1.44-.46 2.24-.71-.7-3-1.31-5.9-2.07-8.77-1-3.85-1.59-7.79-2.37-11.68-.26-1.29.15-1.85 1.45-2.16.82-.19 1.67-.24 2.5-.37 1.44-.21 2.87-.45 4.31-.65 2.17-.29 2.85.15 3.53 2.29a13.57 13.57 0 0 1 .49 2c.35 2.11.67 4.23 1 6.35.46 2.87.92 5.74 1.4 8.6a10.56 10.56 0 0 0 .38 1.33c.29 1 .74 1.13 1.69.64.27-.14.51-.33.36-.71-.74-1.89-.52-3.93-.89-5.88a3.51 3.51 0 0 1-.08-.91 1.54 1.54 0 0 1 1.32-1.37c1.27-.23 2.56-.42 3.83-.67a2.25 2.25 0 0 1 3 1.74c.43 1.7.74 3.44 1.09 5.16.13.63.36.83.93.63 2-.66 4.07-.7 6.06-1.26a2.38 2.38 0 0 1 .46 0 .76.76 0 0 1 .85.6.88.88 0 0 1-.46 1 1.75 1.75 0 0 1-.65.19c-3.15.63-6.3 1.22-9.44 1.9-4.55 1-9.09 2-13.65 3-1.49.33-3 .53-4.5.87-4.62 1-9.23 2.12-13.84 3.21a11.75 11.75 0 0 1-3.87.33 1.94 1.94 0 0 1-2-1.83c-.33-1.8-.7-3.61-.85-5.43-.23-2.61-.81-5.14-1.26-7.7-.39-2.18-1-4.32-1.45-6.5-.52-2.54-1-5.1-1.44-7.66a5.65 5.65 0 0 1 0-1.59c0-.15.31-.3.51-.38s.31.12.35.23a8.07 8.07 0 0 1 .33 1.09c.78 3.43 1.57 6.86 2.34 10.29a107.43 107.43 0 0 1 2.45 14.92 14.13 14.13 0 0 0 .35 2c.18.75.51 1 1.29 1a11.45 11.45 0 0 0 3.28-.63Z"/><path fill="#0a0806" d="M508.73 212.27a5.86 5.86 0 0 1-.29 2c-1.45 3.81-5.55 3.2-7.2 1.17a8.1 8.1 0 0 1-1.63-3 5 5 0 0 1 .34-3.78 3.86 3.86 0 0 1 5.79-1.59 6.47 6.47 0 0 1 2.99 5.2Z"/><path fill="#090605" d="M448.42 218a4.37 4.37 0 0 1 .69-2.79 3.33 3.33 0 0 1 5.11-.95 4.9 4.9 0 0 1 1.73 2.64 5.66 5.66 0 0 1-1.12 5.76 3.32 3.32 0 0 1-4.36.24 5.59 5.59 0 0 1-2.05-4.9Z"/><path fill="#0e0a09" d="M492.54 204.22a2.79 2.79 0 0 1 2.73-3 3 3 0 0 1 2.76 3 3 3 0 0 1-2.62 3 3.06 3.06 0 0 1-2.87-3Z"/><path fill="#0d0908" d="M450.72 229.48a3 3 0 0 1-3 2.88 2.58 2.58 0 0 1-2.54-2.72 3 3 0 0 1 2.83-3 2.83 2.83 0 0 1 2.71 2.84Z"/><path fill="#0e0908" d="M508.91 222.3a2.64 2.64 0 0 1-2.2 2.62 2.59 2.59 0 0 1-2.76-1.84 3 3 0 0 1 0-2 2.46 2.46 0 0 1 2-1.71 2.3 2.3 0 0 1 2.19.94 3.18 3.18 0 0 1 .77 1.99Z"/><path fill="#0f0909" d="M303.7 154.79c1.54-.16 4.68 1.9 5.32 3.72a.74.74 0 0 1-.37 1 .71.71 0 0 1-.85-.11c-.33-.3-.57-.71-.89-1-1.08-1.11-2.26-2.07-4-2a.73.73 0 0 1-.44-.08 1 1 0 0 1-.37-.51.84.84 0 0 1 .2-.6c.36-.44.85-.38 1.4-.42Z"/><path fill="#1a1515" d="M300.46 182.91a3.27 3.27 0 0 0 3-.69 5.13 5.13 0 0 1 .91-.66.73.73 0 0 1 .82.23.69.69 0 0 1 .14.83 4.86 4.86 0 0 1-4.94 2 1.41 1.41 0 0 1-.86-.68.72.72 0 0 1 .52-1Z"/><path fill="#211818" d="M328.2 173.54c-.16-.11-.41-.19-.51-.36s-.14-.51 0-.61a10.53 10.53 0 0 0 1.62-1.84c.08-.13.4-.18.59-.16.38 0 .48.38.48.66a2.66 2.66 0 0 1-2.18 2.31Z"/><path fill="#0e0800" d="M20.79 303.56a.92.92 0 0 1 .47.69c.48 2 .94 4 1.41 6A62.3 62.3 0 0 0 25 318a5.39 5.39 0 0 1 .3 1.55c0 .15-.23.41-.41.48a.8.8 0 0 1-.62-.11 2.61 2.61 0 0 1-.79-1.37 49.72 49.72 0 0 1-2.49-9c-.15-1.06-.51-2.08-.71-3.13a3.8 3.8 0 0 1 0-2.47.51.51 0 0 1 .51-.39Z"/><path fill="#0c0700" d="M13.76 306.57c.14.13.4.24.46.42.25.71.48 1.44.66 2.18A118.94 118.94 0 0 0 18.29 321a3.46 3.46 0 0 1 .25 1.08.66.66 0 0 1-1 .46 2.26 2.26 0 0 1-.64-.9 105.39 105.39 0 0 1-3.67-12.94 3.24 3.24 0 0 1-.06-1.8c.09-.27.32-.28.59-.33Z"/><path fill="#0d0800" d="M26.92 303.74a3.58 3.58 0 0 1 0-.41.74.74 0 0 1 .53-.68.57.57 0 0 1 .69.43c.22.65.4 1.31.56 2q1.32 5.94 2.63 11.86a5.47 5.47 0 0 1 .14.68c0 .46.06.92-.44 1.19s-.9-.17-1.08-.89-.26-1.51-.43-2.25c-.79-3.58-1.61-7.16-2.41-10.74-.11-.47-.11-.93-.19-1.19Z"/><path fill="#0d0700" d="m38.21 311.25.77-.86a1.73 1.73 0 0 1 1.84-.64 2 2 0 0 0 2.23-.76 1.15 1.15 0 0 1 1-.5 5.3 5.3 0 0 0 3.28-.74c.13-.07.46.09.6.23a.77.77 0 0 1 .12.85 1.49 1.49 0 0 1-.8.78 3.94 3.94 0 0 1-1.93.65 2.52 2.52 0 0 0-2.4 1 1.41 1.41 0 0 1-1.48.39 1.85 1.85 0 0 0-2 .58 2.74 2.74 0 0 1-1.86.78 1 1 0 0 1-1.12-.56 1.25 1.25 0 0 1 .15-1.49.65.65 0 0 1 .82-.16ZM34.51 303.08a.82.82 0 0 1-.73-.74c-.05-.31 0-.77.27-.78 1.12-.05 1.74-.86 2.51-1.45a4.23 4.23 0 0 1 .4-.24c.75-.49 1.69.12 2.43-.42a3 3 0 0 1 2.32-.77c.79.11 1.47-.36 2.22-.5.37-.06.73-.22 1.11-.25a.67.67 0 0 1 .71.46.74.74 0 0 1-.17.84 3.78 3.78 0 0 1-2.08.86 9.54 9.54 0 0 1-1.6.09 2 2 0 0 0-1.47.49 2.28 2.28 0 0 1-2.31.66c-.6-.16-1 .33-1.37.67a4.17 4.17 0 0 1-2.24 1.08Z"/><path fill="#120a00" d="M36.65 307.84a1.26 1.26 0 0 1-1.16-.74.66.66 0 0 1 .21-.81.71.71 0 0 1 .18-.12c1-.38 2.14-.33 3-.75a7.65 7.65 0 0 1 2.69-1.1 2.71 2.71 0 0 0 1.44-.65c.43-.32.88-.61 1.33-.9s.68-.36 1 0a.92.92 0 0 1-.14 1.4 11.41 11.41 0 0 1-3.59 1.83c-.44.13-1 .11-1.26.48-.99 1.31-2.6.7-3.7 1.36Z"/><path fill="#110900" d="M39.73 318.31c-1-.05-1.38-.48-1.19-1.32a.73.73 0 0 1 1.17-.53 1.08 1.08 0 0 0 1.58-.27 3 3 0 0 1 2.71-1.31 1.92 1.92 0 0 0 1.4-.66 2.8 2.8 0 0 1 1.59-.83.88.88 0 0 1 .93.51c.18.41.08.79-.34.92a5.77 5.77 0 0 0-1.89 1.25 1.84 1.84 0 0 1-1.2.59 3.32 3.32 0 0 0-2.64 1 2.22 2.22 0 0 1-2.12.65Z"/><path fill="#070400" d="M396.8 139.77a4 4 0 0 0-1.09-.11 6.17 6.17 0 0 1-4.43-.34 1.14 1.14 0 0 0-1.26.34 3.27 3.27 0 0 1-3.77.78 1.24 1.24 0 0 0-1.28.24 13.74 13.74 0 0 1-1.68 1.18 2 2 0 0 1-2.84-1.08.75.75 0 0 1 .18-.85.61.61 0 0 1 .82-.06 1.62 1.62 0 0 1 .33.31c.46.56.93.39 1.38 0s.79-.71 1.21-1.05a1.77 1.77 0 0 1 2.11-.36 2 2 0 0 0 2.49-.33 6.25 6.25 0 0 1 .79-.46 2.12 2.12 0 0 1 2.17-.13 3.25 3.25 0 0 0 2.43.37 6.72 6.72 0 0 1 2.49 0 4 4 0 0 0 4.13-1.35.69.69 0 0 1 1-.19.92.92 0 0 1 .19 1.23 3.47 3.47 0 0 1-1.54 1.32 6.67 6.67 0 0 1-3.83.54Z"/><path fill="#0d0700" d="M403 129.72a3.82 3.82 0 0 1-.67 0 3.25 3.25 0 0 0-3.2.52 1.91 1.91 0 0 1-2.17.08 1.84 1.84 0 0 0-2.11.21 2.61 2.61 0 0 1-2.4.34 1.36 1.36 0 0 1-1-1.11.73.73 0 0 1 .3-.8.71.71 0 0 1 .62 0 1.43 1.43 0 0 0 1.87.11 3.12 3.12 0 0 1 3-.4 2.1 2.1 0 0 0 2.14-.43 1.84 1.84 0 0 1 1.72-.42 5.82 5.82 0 0 0 4.43-.32.61.61 0 0 1 .79.26.72.72 0 0 1-.1 1 5 5 0 0 1-3.22.96Z"/><path fill="#0e0800" d="M396.11 145.35a6.09 6.09 0 0 1-1-.21 1.51 1.51 0 0 0-1.52.11 2.85 2.85 0 0 1-2.19.42 3.83 3.83 0 0 0-2.84.53 1.65 1.65 0 0 1-.87.21.79.79 0 0 1-.71-.49.59.59 0 0 1 .25-.79c1.37-.54 2.56-1.79 4.25-1.07a1.48 1.48 0 0 0 1.29-.27 3 3 0 0 1 2-.38c1.65.32 3.16-.25 4.69-.68.29-.08.56-.28.85-.33a.86.86 0 0 1 .6.22.65.65 0 0 1 .11.83 1.13 1.13 0 0 1-.44.5c-1.44.79-3.08.85-4.47 1.4Z"/><path fill="#ec8507" d="M330.37 177.54a2.16 2.16 0 0 0-3.75-.18 4 4 0 0 0-.65 2.28 3.26 3.26 0 0 0 1.19 2.91 1.74 1.74 0 0 0 2.73-.46 5.27 5.27 0 0 0 .85-3.25 3.47 3.47 0 0 0-.37-1.3Zm-2.26 4c-.14 0-.31.11-.42.06a1.1 1.1 0 0 1-.53-.39 2.87 2.87 0 0 1-.1-3 .52.52 0 0 1 .35-.2.34.34 0 0 1 .37.42c0 .23-.08.45-.15.84a2.38 2.38 0 0 0 .61 1.92c.12.14.07.26-.13.31Z"/><path fill="#f38704" d="M203.41 134.39a9.3 9.3 0 0 0-1.92-2.27 23.53 23.53 0 0 0-11.41-5.56 17.55 17.55 0 0 0-17.55 8 35 35 0 0 0-4.22 10.12 13.86 13.86 0 0 0 .44 7.91 20.29 20.29 0 0 0 3.48 6.16c1.47 1.77 3.06 3.43 4.66 5.08a8.29 8.29 0 0 0 4.11 2.37 14.17 14.17 0 0 1 2.78.93c.33-1.21.6-2.25.88-3.28a28.56 28.56 0 0 0 .92-5.89c0-.68-.08-1.18-.81-1.44a8.76 8.76 0 0 1-1.43-.73 7.7 7.7 0 0 1-3.16-3.54 5 5 0 0 1-.52-3.12 3 3 0 0 1 5.06-1.81 7.08 7.08 0 0 1 2.07 3.26 13.84 13.84 0 0 1 .63 3.84c0 .83.3 1.07 1.08 1.19s1.22 0 1.55-.92a22.83 22.83 0 0 1 1.83-3.95 7.05 7.05 0 0 1 2.14-2.37 2 2 0 0 1 3.33 1.56 4.49 4.49 0 0 1-.17 1.82 7.5 7.5 0 0 1-4 4.78 16 16 0 0 1-1.49.6 1 1 0 0 0-.65.87 24 24 0 0 0 .33 8.89 1.55 1.55 0 0 0 2.09 1.14c.65-.22 1.26-.56 1.92-.75a11.15 11.15 0 0 0 5.92-4.48 24 24 0 0 0 2.1-3.28 31.15 31.15 0 0 0 3.36-10.67 22 22 0 0 0-3.35-14.46Zm-15.3-4.89a18.44 18.44 0 0 0-4.21 1 18.81 18.81 0 0 0-7 4.24 10.16 10.16 0 0 0-3.33 6.09c0 .27 0 .68-.48.55s-.36-.44-.34-.65a9.26 9.26 0 0 1 2-4.88 19.31 19.31 0 0 1 10.61-6.72 6.85 6.85 0 0 1 2.69-.43c.21 0 .45.05.45.36a.44.44 0 0 1-.39.44Z"/><path fill="#0c0700" d="m461.77 187.44.54.66c.38 0 .33-.29.39-.48l2.94-8.86c.4-1.23.77-2.46 1.19-3.68a1.7 1.7 0 0 1 .48-.75 1 1 0 0 1 .64-.07.45.45 0 0 1 .25.34 3.74 3.74 0 0 1-.11 1.11c-.4 1.31-.86 2.6-1.27 3.91-.91 2.89-1.86 5.78-2.66 8.71a2.1 2.1 0 0 1-1.49 1.47 2.49 2.49 0 0 1-.9-2.36Z"/><path fill="#110900" d="M459.49 163.9c.76-1.88 1.52-3.75 2.27-5.64a2 2 0 0 1 .7-1.12.66.66 0 0 1 .83 0 .61.61 0 0 1 .23.6.49.49 0 0 1 0 .21 49.32 49.32 0 0 0-2.13 5.73c-.37 1.15-.42 1.13-1.84 1-.05-.25-.05-.51-.06-.78Z"/><path fill="#d37003" d="m460.84 179.68.9-.45c.71.77.12 2 .9 2.74a.82.82 0 0 1-.62.49 1.13 1.13 0 0 0-.83.56 8.21 8.21 0 0 1-.35-3.34Z"/><path fill="#0c0700" d="M462.71 190.13a1.65 1.65 0 0 1 .48 1c-.48-.13-.52-.56-.48-1Z"/><path fill="#f28604" d="M53.52 234.35c-.17-.52-.5-.8-1-.53a8.7 8.7 0 0 0-1.12.79c-.2.14-.43.23-.61 0a.53.53 0 0 1 0-.8c.61-.66 1.54-1.07 1.54-2.16 0-.28.26-.38.47-.41 1.51-.2 3-.42 4.55-.56.93-.09 1.27.1 1.52 1a46 46 0 0 1 1.1 4.92c.52 3.24.9 6.5 1.4 9.75.19 1.28.54 2.54.8 3.81a.62.62 0 0 1-.34.76 12.58 12.58 0 0 1-4.64.71c0-.6.61-.85.86-1.31s.28-.76-.08-1-.58 0-.8.19c-.63.66-1.22 1.36-1.86 2-.2.2-.48.46-.79.19a1 1 0 0 1-.3-1c.13-.47.57-.69.9-1 .85-.78 1.68-1.56 2.49-2.37a.67.67 0 0 0 0-.62.52.52 0 0 0-.79-.15c-.83.67-1.61 1.4-2.43 2.08a.73.73 0 0 1-.62.15c-.14-.07-.22-.36-.27-.57a1.28 1.28 0 0 1 .44-1.43 6 6 0 0 0 1-.9c.44-.55 1.68-.95 1.08-1.73s-1.25.31-1.85.65c-.26.15-.47.38-.72.56a.39.39 0 0 1-.58-.14 1.17 1.17 0 0 1-.15-.63c.06-.41.43-.61.71-.86.85-.77 1.72-1.51 2.56-2.3a.55.55 0 0 0 0-.81.56.56 0 0 0-.81 0c-.72.57-1.42 1.17-2.14 1.74-.22.17-.51.43-.78.12a.71.71 0 0 1 .05-1c.73-.68 1.49-1.31 2.24-2 .34-.3.79-.55.61-1.11-.11-.36-.85-.32-1.39.1s-1.07.86-1.62 1.28a.47.47 0 0 1-.4 0 .41.41 0 0 1-.11-.6 8.65 8.65 0 0 1 2.49-2.33c.51-.37 1-.77.77-1.51-.3-.57-1.51.26-1.38-.97Z"/><path fill="#f18604" d="M42.1 254.25c.49-.72 1.21-1.34.86-2.36-.2-.27-.69-.41-.42-.91.05-.14.12-.28.16-.42.24-.78.21-.82-.67-1l-.45-.06c0-.77.83-1 1.09-1.69s.25-.67-.63-1.06c-1.2.17-.33-1.14-1-1.36H40.63c-.43.09-.64-.06-.52-.53a2 2 0 0 1 .12-.19c.27-.36.66-.75.37-1.21s-.77-.08-1.15.08c-.19.08-.45.26-.54-.1a1.24 1.24 0 0 1 0-.66.83.83 0 0 1 .47-.45 34.68 34.68 0 0 1 5.8-1.18c.81 0 1.16.17 1.28.94.34 2.26 1 4.45 1.1 6.75a31.33 31.33 0 0 0 .78 4c.14.67-.05 1-.74 1.16-1 .28-2.08.47-3.1.77a2.85 2.85 0 0 1-2-.2c-.42.3-.5.07-.4-.32Z"/><path fill="#eb8304" d="M67.38 244.63c.37-.36 1-.6 1-1.2 0-.85.53-1 1.15-1.09l.46-.05c1-.07 1.24.1 1.5 1 .17.59.3 1.18.43 1.77.16.74.28 1.49.44 2.23.27 1.29.06 1.6-1.27 1.8a.89.89 0 0 1-1-.37c-.22-.46-.82-.15-1.07-.53.26-.44.76-.76.64-1.37-.29-.26-.74-.45-.52-1a1.6 1.6 0 0 0 .2-.39c.16-.68-.12-1-.73-.84a4 4 0 0 0-.78.37c-.46.26-.48.04-.45-.33Z"/><path fill="#c66b03" d="M53.52 234.35a1 1 0 0 0 .71.46.81.81 0 0 1 .7.46 1.62 1.62 0 0 0-1.46.42c-.55.52-1.14 1-1.71 1.5-.21.17-.47.16-.58-.06a.68.68 0 0 1 0-.61c.82-.75 1.56-1.45 2.34-2.17Z"/><path fill="#b56403" d="M41.1 245.46a.68.68 0 0 1 .54.62 1 1 0 0 0 .44.74c-.54.62-1.06 1.24-1.62 1.84a.35.35 0 0 1-.56 0 .66.66 0 0 1-.08-.6 14.79 14.79 0 0 1 1.1-1.38 1.21 1.21 0 0 0 .18-1.22Z"/><path fill="#965603" d="m69.11 245.82.52 1c-.88-.27-1.39.41-2 .79a.46.46 0 0 1-.41 0c-.31-.18-.06-.38.06-.52a6.35 6.35 0 0 1 1.83-1.27Z"/><path fill="#9b5802" d="M69 248.17c.43 0 .86 0 1.07.53-.93-.1-1.47.67-2.22 1-.16.07-.31.08-.38-.09a.47.47 0 0 1 .07-.4 3.83 3.83 0 0 1 1.46-1.04Z"/><path fill="#d87603" d="m42.54 251 .42.91a1.61 1.61 0 0 0-1.37.86c-.42.14-.61 0-.47-.43Z"/><path fill="#9b5502" d="m40.17 244.91.52.53a10.09 10.09 0 0 1-.83.77.42.42 0 0 1-.38-.08.5.5 0 0 1-.07-.41 1.27 1.27 0 0 1 .76-.81Z"/><path fill="#d47003" d="m67.38 244.63.42.33c-.18.43-.59.6-1 .83-.15.1-.27.07-.33-.11a.35.35 0 0 1 0-.2 1.2 1.2 0 0 1 .91-.85Z"/><path fill="#835502" d="M67.14 243a.65.65 0 0 1-.81.5.45.45 0 0 1-.19-.33.6.6 0 0 1 .8-.46c.06.06.14.22.2.29Z"/><path fill="#7a3b01" d="M41.12 252.32a.59.59 0 0 0 .47.43c-.06.13-.09.31-.19.38a2 2 0 0 1-.55.24c-.05-.2-.17-.41-.13-.59s.28-.31.4-.46Z"/><path fill="#955703" d="M50.72 231.67c.09.07.28.16.27.22a.42.42 0 0 1-.47.35c-.05 0-.12-.1-.14-.16-.06-.27.09-.39.34-.41Z"/><path fill="#c16403" d="m42.1 254.25.45.39a1.81 1.81 0 0 1-.33.29c-.19.1-.42.22-.57 0 0-.09 0-.28.1-.39a1.3 1.3 0 0 1 .35-.29Z"/><path fill="#b16f03" d="M41.11 249.92a.39.39 0 0 1 .51-.35c.17.44-.11.63-.44.8a.26.26 0 0 1-.11-.27c-.02-.1.01-.18.04-.18Z"/><path fill="#b86e03" d="M41.11 249.92v.42c0 .14-.27.14-.32 0s.13-.34.32-.42Z"/><path fill="#f08504" d="M503.56 208.16a3 3 0 0 1 1.45.45 4.6 4.6 0 0 1 2 4.92 2.36 2.36 0 0 1-3.16 1.69c-2.9-.85-3.25-4.33-2.44-6a2.12 2.12 0 0 1 2.15-1.06Z"/><path fill="#ee8504" d="M454.74 218.94a4.81 4.81 0 0 1-.79 2.34 1.74 1.74 0 0 1-2.43.4c-1.53-.91-2.42-4.3-.63-6.07a1.52 1.52 0 0 1 2.23-.11 5 5 0 0 1 1.62 3.44Z"/><path fill="#d67b04" d="M495.36 202.91a1.43 1.43 0 0 1 1.11 1.51 1.1 1.1 0 0 1-1.19 1.11 1.2 1.2 0 0 1-1.09-1.45 1.22 1.22 0 0 1 1.17-1.17Z"/><path fill="#ca7403" d="M447.81 230.8a1.15 1.15 0 0 1-1.05-1 1.35 1.35 0 0 1 1.28-1.34c.63 0 1.28.57 1.19 1.11a1.51 1.51 0 0 1-1.42 1.23Z"/><path fill="#d17703" d="M506.15 221.18a1.18 1.18 0 0 1 1.11 1.2.92.92 0 0 1-.95 1 1.11 1.11 0 0 1-1-1.29.92.92 0 0 1 .84-.91Z"/><path fill="#050402" d="M385.92 127.11a1.87 1.87 0 0 0-1.73-1.28l-2.52-.13a22.69 22.69 0 0 0-6.33 1.06 3.57 3.57 0 0 0-1.21.62 1.25 1.25 0 0 0-.51 1.42c.48 1.45.9 2.92 1.52 4.31a3.16 3.16 0 0 0 2.61 2 12.55 12.55 0 0 0 7.12-1.33 2.69 2.69 0 0 0 1.53-2.16 9.42 9.42 0 0 0-.48-4.51Zm-2.72 5.67a14.3 14.3 0 0 1-4.72.74 2.11 2.11 0 0 1-2.15-1.41c-.11-.28-.28-.55-.37-.84-.91-3.14-1.09-2.82 2-3.52a18.19 18.19 0 0 1 5-.47c1.42.09 1.71.35 1.86 1.76 0 .38 0 .77.07 1.15a2.22 2.22 0 0 1-1.69 2.59Z"/><path fill="#040301" d="M448 127.63c0 2.53-.59 3.44-2.42 4.23a15.06 15.06 0 0 1-4.82 1.34 5 5 0 0 1-4.36-1.52 3.89 3.89 0 0 1-.94-1.54c-.58-2.06-1.2-4.09-1.75-6.15a1.64 1.64 0 0 1 1-2.09 4.6 4.6 0 0 1 1.25-.54q3.24-.72 6.48-1.38a6.57 6.57 0 0 1 1.59-.18 2.27 2.27 0 0 1 2.24 1.31 23.31 23.31 0 0 1 1.73 6.52Z"/><path fill="#090606" d="M459.06 138.3a3.28 3.28 0 0 0 3.13-1 3.9 3.9 0 0 1 3.57-1.15 3.39 3.39 0 0 0 2.4-.58c.65-.4 1.31-.78 2-1.16a4.26 4.26 0 0 1 2.87-.58.78.78 0 0 1 .73.75c0 .44-.21.82-.6.82a9.28 9.28 0 0 0-4.65 1.8 4.32 4.32 0 0 1-2.82.69 3.33 3.33 0 0 0-2.74.88 12.38 12.38 0 0 1-1.35.86 2.56 2.56 0 0 1-2.41.35 2.72 2.72 0 0 0-2.79.45 23.42 23.42 0 0 1-4.59 2 .66.66 0 0 1-.82-.18 1.25 1.25 0 0 1-.25-1.28c.11-.32.43-.59.68-.52 1.54.41 2.62-.51 3.78-1.24a4.93 4.93 0 0 1 3.86-.91Z"/><path fill="#0a0707" d="M437.7 136.72c.09-.14.17-.4.35-.48s.54-.05.62.07c.89 1.3 1.83 1 2.84.17a2.94 2.94 0 0 1 2.84-.37 2.72 2.72 0 0 0 2.93-.67 2.88 2.88 0 0 1 3.15-.71 1.84 1.84 0 0 0 1.91-.39 3.68 3.68 0 0 1 3.17-.89 3.94 3.94 0 0 0 2.43-.47 2.76 2.76 0 0 1 .86-.3.85.85 0 0 1 .61.2.57.57 0 0 1 0 .82 4.16 4.16 0 0 1-2.56 1.37 5.62 5.62 0 0 1-1.36 0 3 3 0 0 0-2.35.64 3.07 3.07 0 0 1-3.22.53 1.38 1.38 0 0 0-1.64.38c-.27.27-.63.43-.92.68a2.7 2.7 0 0 1-3 .52 2.38 2.38 0 0 0-2.54.32 5.62 5.62 0 0 1-.79.46 2.32 2.32 0 0 1-3.33-1.6 1.36 1.36 0 0 1 0-.28Z"/><path fill="#0e0a0a" d="M467.18 123.24a3.28 3.28 0 0 0-2.61.48 2.31 2.31 0 0 1-2.6.06 2.09 2.09 0 0 0-2.53.28 6 6 0 0 1-1.62.8c-.47.18-1-.22-1.23-.76-.12-.36.14-.95.46-.88a2.28 2.28 0 0 0 2-.77 2.44 2.44 0 0 1 3-.4 2.07 2.07 0 0 0 2.53-.25 2.25 2.25 0 0 1 1.72-.45 9.06 9.06 0 0 0 4.5-.45.45.45 0 0 1 .23 0 .78.78 0 0 1 .72.45.68.68 0 0 1-.19.83 5.82 5.82 0 0 1-2.76 1c-.54.04-1.07.03-1.62.06Z"/><path fill="#0c0700" d="M462.64 182c-1-.05-1.34-.28-1.17-1a4.8 4.8 0 0 0 .27-1.72l4.07-11.66c.07-.21.1-.44.18-.66.19-.47.79-.81 1.07-.58a.88.88 0 0 1 .2 1l-3.63 11.55c-.32 1.01-.63 2.07-.99 3.07Z"/><path fill="#100900" d="M465.17 161.76c-.51 2.15-1 4.37-1.59 6.59-.31 1.26-.63 2.52-1 3.77a5.1 5.1 0 0 1-.55 1.24.66.66 0 0 1-.58.22.85.85 0 0 1-.45-.46 2.06 2.06 0 0 1 .08-1.34c.74-2.88 1.45-5.78 2.22-8.65.17-.66.08-1.39.53-2 .24-.3.42-.68.9-.46a.79.79 0 0 1 .42.75 3.05 3.05 0 0 1 .02.34Z"/><path fill="#030200" d="M480.88 226c.54.52 1.2.41 1.77.54a3.8 3.8 0 0 1 3.11 3.72 6.13 6.13 0 0 1-1.28 4.07 10.86 10.86 0 0 1-3.9 3.46 2.44 2.44 0 0 0-1.58 2.87 10.29 10.29 0 0 1-.19 2.27.57.57 0 0 1-.63.52.67.67 0 0 1-.62-.57c-.08-.61-.07-1.22-.11-1.83s.15-1.22-.31-1.84c-.77.12-1.58.29-2.4.35a1.22 1.22 0 0 1-1.45-1.36c-.05-1.75 0-3.51 0-5.27 0-2.82 0-5.65-.05-8.47v-1.84a1.4 1.4 0 0 1 .83-1.48c.62-.28 1.19-.7 1.83-.92a1 1 0 0 0 .72-1c0-.76.08-1.52.14-2.28a4.4 4.4 0 0 1 .19-.89c.13-.38.37-.71.82-.6a.68.68 0 0 1 .5.69c0 .76 0 1.52-.06 2.29a1.84 1.84 0 0 0 1.06 2 3.9 3.9 0 0 1 1.91 4.31c-.13.39-.18.83-.3 1.26Z"/><path fill="#ea8204" d="M446.47 128.26a2 2 0 0 1-1.43 2.21 8.84 8.84 0 0 1-1.51.48.77.77 0 0 1-.91-.5c-.36-.91-.69-1.83-1-2.76a.55.55 0 0 1 .38-.69c.8-.24 1.61-.42 2.42-.62 1.87-.47 2-.36 2.07 1.6Z"/><path fill="#ec8404" d="M439.79 124.37c0 .2 0 .51.06.81a.94.94 0 0 1-.79 1.17l-.67.16c-2.56.65-2.75.51-2.92-2.07-.05-.88 0-1.06.86-1.34.43-.15.88-.26 1.31-.4 2.17-.7 2.16-.52 2.15 1.67Z"/><path fill="#e58004" d="M445.6 124.4c-1.27.42-2.34.8-3.43 1.11-.66.18-1-.1-1-.82v-.46c-.13-2.36.29-2.81 2.63-2.81a1.27 1.27 0 0 1 1.36 1c.13.58.24 1.16.44 1.98Z"/><path fill="#e78204" d="M439.78 131.6a3.18 3.18 0 0 1-2.71-1.55c-.73-1.17-.62-1.49.72-1.89.29-.09.58-.2.87-.27 1.19-.28 1.67-.31 2 1.1a12.24 12.24 0 0 0 .56 1.49c.29.82.09 1.1-.79 1.12-.18.01-.33 0-.65 0Z"/><path fill="#f08504" d="M478.65 232.44v-3c0-.81.19-1.06 1-1.31a3.88 3.88 0 0 1 3.52.31 2.27 2.27 0 0 1 1.09 2.35 5.52 5.52 0 0 1-1.55 3.25c-.51.45-1 .94-1.53 1.37s-1.25 1.43-2.1 1c-.55-.28-.22-1.25-.26-1.92s0-1.37 0-2.06Z"/><path fill="#e37d04" d="M474.77 233.9v-2.73a1.23 1.23 0 0 1 .81-1.25c1-.42 1.35-.48 1.49.73a52.64 52.64 0 0 1 .32 5.47c0 1.14-.1 1.24-1.24 1.53l-.45.1c-.58.11-.89-.09-.91-.65v-3.2Z"/><path fill="#df7c04" d="M476.7 224.71c0 .54 0 1.07.1 1.6a1.2 1.2 0 0 1-.88 1.38c-.89.38-1.15.31-1.19-.56-.06-1.29-.07-2.59-.12-3.88a1.29 1.29 0 0 1 1-1.33c.56-.2.94 0 1 .52v2.27Z"/><path fill="#d17504" d="M479.67 223.92A3.17 3.17 0 0 1 479 226a.44.44 0 0 1-.39.13c-.1 0-.2-.16-.25-.28a1.27 1.27 0 0 1 0-.44c0-.9-.07-1.8-.07-2.7 0-.33-.13-.81.44-.82.32 0 .5.27.67.53a2.93 2.93 0 0 1 .27 1.5Z"/></g></svg>